<svg xmlns="http://www.w3.org/2000/svg" xmlns:xlink="http://www.w3.org/1999/xlink" width="900" zoomAndPan="magnify" viewBox="0 0 675 487.499991" height="650" preserveAspectRatio="xMidYMid meet" version="1.0"><defs><g/><clipPath id="id1"><path d="M 0.347656 0 L 674.652344 0 L 674.652344 487 L 0.347656 487 Z M 0.347656 0 " clip-rule="nonzero"/></clipPath><clipPath id="id2"><path d="M 436 449 L 674.652344 449 L 674.652344 487 L 436 487 Z M 436 449 " clip-rule="nonzero"/></clipPath><clipPath id="id3"><path d="M 405.769531 462.71875 L 671.734375 422.605469 L 707.15625 657.457031 L 441.191406 697.570312 Z M 405.769531 462.71875 " clip-rule="nonzero"/></clipPath><clipPath id="id4"><path d="M 405.769531 462.71875 L 671.734375 422.605469 L 707.15625 657.457031 L 441.191406 697.570312 Z M 405.769531 462.71875 " clip-rule="nonzero"/></clipPath><clipPath id="id5"><path d="M 0.347656 0 L 247 0 L 247 69 L 0.347656 69 Z M 0.347656 0 " clip-rule="nonzero"/></clipPath><clipPath id="id6"><path d="M 225.253906 -315.160156 L 283.054688 34.480469 L -25.933594 85.558594 L -83.730469 -264.082031 Z M 225.253906 -315.160156 " clip-rule="nonzero"/></clipPath><clipPath id="id7"><path d="M 225.253906 -315.160156 L 283.054688 34.480469 L -25.933594 85.558594 L -83.730469 -264.082031 Z M 225.253906 -315.160156 " clip-rule="nonzero"/></clipPath><clipPath id="id8"><path d="M 409 80 L 417 80 L 417 89 L 409 89 Z M 409 80 " clip-rule="nonzero"/></clipPath><clipPath id="id9"><path d="M 405.765625 87.398438 L 410.289062 78.773438 L 419.578125 83.644531 L 415.054688 92.269531 Z M 405.765625 87.398438 " clip-rule="nonzero"/></clipPath><clipPath id="id10"><path d="M 405.765625 87.398438 L 410.289062 78.773438 L 419.578125 83.644531 L 415.054688 92.269531 Z M 405.765625 87.398438 " clip-rule="nonzero"/></clipPath><clipPath id="id11"><path d="M 289 61.660156 L 300.238281 61.660156 L 300.238281 72.898438 L 289 72.898438 Z M 289 61.660156 " clip-rule="nonzero"/></clipPath><clipPath id="id12"><path d="M 558.777344 108.070312 L 579.007812 108.070312 L 579.007812 128.300781 L 558.777344 128.300781 Z M 558.777344 108.070312 " clip-rule="nonzero"/></clipPath><clipPath id="id13"><path d="M 195.136719 328.320312 L 479.84375 328.320312 L 479.84375 374.773438 L 195.136719 374.773438 Z M 195.136719 328.320312 " clip-rule="nonzero"/></clipPath><clipPath id="id14"><path d="M 372 0 L 674.652344 0 L 674.652344 93 L 372 93 Z M 372 0 " clip-rule="nonzero"/></clipPath><clipPath id="id15"><path d="M 815.394531 -76.449219 L 540.894531 147.695312 L 342.8125 -94.882812 L 617.3125 -319.027344 Z M 815.394531 -76.449219 " clip-rule="nonzero"/></clipPath><clipPath id="id16"><path d="M 815.394531 -76.449219 L 540.894531 147.695312 L 342.8125 -94.882812 L 617.3125 -319.027344 Z M 815.394531 -76.449219 " clip-rule="nonzero"/></clipPath><clipPath id="id17"><path d="M 0.347656 277.5 L 137.871094 277.5 L 137.871094 471 L 0.347656 471 Z M 0.347656 277.5 " clip-rule="nonzero"/></clipPath><clipPath id="id18"><path d="M 74 46.765625 L 151 46.765625 L 151 147.910156 L 74 147.910156 Z M 74 46.765625 " clip-rule="nonzero"/></clipPath></defs><g clip-path="url(#id1)"><path fill="#20c9a6" d="M 0.347656 0 L 674.652344 0 L 674.652344 487 L 0.347656 487 Z M 0.347656 0 " fill-opacity="1" fill-rule="nonzero"/><path fill="#ffffff" d="M 0.347656 0 L 674.652344 0 L 674.652344 487 L 0.347656 487 Z M 0.347656 0 " fill-opacity="1" fill-rule="nonzero"/><path fill="#20c9a6" d="M 0.347656 0 L 674.652344 0 L 674.652344 487 L 0.347656 487 Z M 0.347656 0 " fill-opacity="1" fill-rule="nonzero"/></g><g clip-path="url(#id2)"><g clip-path="url(#id3)"><g clip-path="url(#id4)"><path fill="#365b6d" d="M 693.234375 608.480469 C 686.167969 586.492188 664.34375 565.054688 671.800781 531.785156 C 681.464844 488.304688 664.242188 462.191406 638.199219 452.945312 C 633.792969 451.269531 629.25 450.164062 624.570312 449.628906 C 619.886719 449.09375 615.210938 449.144531 610.542969 449.78125 C 583.875 453.804688 580.5 469.910156 552.96875 471.5 C 538 472.355469 529.964844 471.023438 497.914062 467.65625 C 424.132812 460.03125 415.648438 528.476562 481.324219 548.980469 C 483.957031 549.804688 489.761719 552.558594 492.460938 553.570312 C 515.046875 561.996094 511.421875 556.824219 537.863281 587.917969 C 554.96875 608.035156 546.796875 627.53125 573.203125 647.664062 C 595.652344 664.730469 622.847656 669.558594 650.957031 665.914062 C 658.25 664.140625 672.667969 662.125 685.605469 648.441406 C 690.675781 643.0625 697.550781 622.046875 693.234375 608.480469 Z M 693.234375 608.480469 " fill-opacity="1" fill-rule="nonzero"/></g></g></g><g clip-path="url(#id5)"><g clip-path="url(#id6)"><g clip-path="url(#id7)"><path fill="#365b6d" d="M 38.382812 66.296875 C 67.242188 56.574219 95.101562 27.417969 139.105469 36.617188 C 196.609375 48.53125 230.726562 25.355469 242.433594 -9.132812 C 244.5625 -14.964844 245.9375 -20.972656 246.554688 -27.148438 C 247.175781 -33.328125 247.023438 -39.488281 246.09375 -45.625 C 240.300781 -80.6875 219 -84.828125 216.398438 -121.066406 C 214.992188 -140.773438 216.597656 -151.386719 220.449219 -193.667969 C 229.144531 -291.015625 138.742188 -300.910156 112.921875 -213.996094 C 111.882812 -210.515625 108.359375 -202.816406 107.074219 -199.242188 C 96.382812 -169.328125 103.132812 -174.199219 62.625 -138.78125 C 36.417969 -115.867188 10.566406 -126.265625 -15.496094 -91.101562 C -37.578125 -61.203125 -43.445312 -25.285156 -38.117188 11.675781 C -35.648438 21.25 -32.726562 40.207031 -14.445312 56.996094 C -7.257812 63.574219 20.574219 72.238281 38.382812 66.296875 Z M 38.382812 66.296875 " fill-opacity="1" fill-rule="nonzero"/></g></g></g><g clip-path="url(#id8)"><g clip-path="url(#id9)"><g clip-path="url(#id10)"><path fill="#f2f1ec" d="M 412.390625 80.792969 C 414.382812 80.917969 415.890625 82.074219 416.320312 83.417969 C 416.753906 84.761719 417.207031 88.160156 412.941406 88.542969 C 408.679688 88.925781 408.140625 82.878906 410.4375 81.492188 C 411.855469 80.636719 412.390625 80.792969 412.390625 80.792969 Z M 412.390625 80.792969 " fill-opacity="1" fill-rule="nonzero"/></g></g></g><g clip-path="url(#id11)"><path fill="#365b6d" d="M 300.234375 67.277344 C 296.023438 68.054688 295.394531 68.683594 294.617188 72.894531 C 293.839844 68.683594 293.210938 68.054688 289 67.277344 C 293.210938 66.5 293.839844 65.871094 294.617188 61.660156 C 295.394531 65.871094 296.023438 66.5 300.234375 67.277344 Z M 300.234375 67.277344 " fill-opacity="1" fill-rule="nonzero"/></g><g clip-path="url(#id12)"><path fill="#365b6d" d="M 579.007812 118.183594 C 571.421875 119.582031 570.289062 120.714844 568.894531 128.296875 C 567.496094 120.714844 566.363281 119.582031 558.777344 118.183594 C 566.363281 116.789062 567.496094 115.65625 568.894531 108.070312 C 570.289062 115.65625 571.421875 116.789062 579.007812 118.183594 Z M 579.007812 118.183594 " fill-opacity="1" fill-rule="nonzero"/></g><g clip-path="url(#id13)"><path fill="#f2f1ec" d="M 458.777344 373.019531 C 458.777344 373.019531 434.023438 374.859375 396.5 374.769531 C 304.34375 374.699219 230.957031 374.433594 230.957031 374.433594 C 222.691406 374.136719 210.367188 373.417969 204.71875 371.453125 C 195.308594 368.175781 195.15625 362.320312 195.15625 354.570312 C 195.445312 344.78125 195.15625 339.859375 197.785156 335.75 C 202.519531 328.34375 212.742188 328.320312 226.921875 328.320312 C 226.921875 328.320312 265.675781 328.714844 362.519531 328.441406 C 426.609375 328.183594 450.882812 328.417969 450.882812 328.417969 C 463.359375 328.671875 468.042969 329.625 474.738281 333.765625 C 479.851562 336.929688 480.039062 344.269531 479.730469 354.570312 C 479.730469 366.308594 478.28125 371.328125 458.777344 373.019531 " fill-opacity="1" fill-rule="nonzero"/></g><g clip-path="url(#id14)"><g clip-path="url(#id15)"><g clip-path="url(#id16)"><path fill="#365b6d" d="M 391.53125 -48.6875 C 414.324219 -28.496094 453.480469 -18.839844 467.402344 23.902344 C 485.6875 79.710938 522.769531 97.765625 558.507812 90.757812 C 564.625 89.699219 570.519531 87.902344 576.1875 85.367188 C 581.855469 82.828125 587.121094 79.628906 591.984375 75.769531 C 619.507812 53.292969 612.5 32.757812 642.636719 12.464844 C 659.027344 1.4375 669.03125 -2.449219 707.625 -20.152344 C 796.386719 -61.0625 759.972656 -144.394531 671.742188 -123.535156 C 668.203125 -122.703125 659.773438 -121.929688 656.035156 -121.265625 C 624.765625 -115.648438 632.351562 -112.214844 581.46875 -129.722656 C 548.550781 -141.050781 544.703125 -168.652344 501.234375 -173.753906 C 464.3125 -178.027344 430.238281 -165.242188 400.832031 -142.226562 C 393.753906 -135.320312 378.765625 -123.347656 373.308594 -99.136719 C 371.175781 -89.628906 377.515625 -61.175781 391.53125 -48.6875 Z M 391.53125 -48.6875 " fill-opacity="1" fill-rule="nonzero"/></g></g></g><g clip-path="url(#id17)"><path fill="#f2f1ec" d="M 61.460938 277.585938 C 60.09375 277.605469 58.507812 277.785156 56.191406 278.101562 C 46.621094 279.402344 41.199219 280.644531 40.878906 281.589844 C 40.726562 282.039062 39.609375 282.394531 38.398438 282.394531 C 34.867188 282.390625 28.519531 285.019531 26.183594 287.460938 C 24.480469 289.238281 23.957031 290.746094 23.085938 297.386719 C 22.917969 298.394531 22.800781 299.421875 22.722656 300.460938 C 22.714844 300.574219 22.703125 300.6875 22.695312 300.796875 C 22.175781 305.308594 21.949219 308.769531 22.179688 311.476562 C 22.179688 311.507812 22.183594 311.542969 22.179688 311.578125 C 22.15625 320.71875 31.570312 325.394531 39.457031 326.46875 C 41.507812 327.496094 43.300781 327.4375 44.984375 326.933594 C 46.726562 327.027344 47.617188 326.597656 49.554688 325.433594 C 50.914062 324.617188 52.226562 324.082031 53.609375 323.832031 C 55.003906 324.90625 56.859375 324.476562 58.4375 323.625 C 61.445312 323.34375 63.164062 322.0625 64.070312 319.460938 L 64.742188 317.550781 C 67.886719 324.039062 68.652344 331.695312 70.035156 338.695312 C 70.238281 341.769531 70.25 344.828125 70.164062 347.898438 C 70.0625 349.882812 69.917969 352.175781 69.726562 355.109375 C 69.542969 357.882812 69.394531 360.554688 69.234375 363.230469 C 69.15625 364.523438 69.070312 365.882812 69 367.054688 C 68.945312 368.03125 68.886719 369 68.847656 369.976562 C 68.839844 370.175781 68.828125 370.371094 68.820312 370.570312 C 68.746094 371.984375 68.636719 373.917969 68.613281 374.628906 L 68.484375 378.378906 C 68.320312 378.5 68.132812 378.695312 67.941406 379.023438 L 66.367188 377.164062 C 61.453125 371.355469 58.140625 369.664062 49.761719 368.734375 C 42.320312 367.910156 37.636719 369.917969 29.953125 377.265625 L 23.523438 383.417969 L 20.757812 381.996094 C 17.71875 380.421875 1.417969 375.042969 -0.316406 375.042969 C -0.917969 375.042969 -1.398438 375.378906 -1.398438 375.765625 C -1.398438 376.15625 2.207031 377.085938 5.726562 378.117188 C 8.886719 379.054688 11.496094 380.324219 15.980469 382.046875 C 17.777344 382.703125 18.605469 382.988281 19.621094 383.367188 C 20.542969 384.8125 24.769531 389.332031 25.328125 397.765625 C 29.652344 378.078125 41.0625 369.503906 50.328125 370.648438 C 52.433594 371.0625 52.175781 371.019531 53.453125 371.320312 C 59.75 372.855469 60.5 375.246094 65.101562 378.328125 C 66.523438 380.367188 66.96875 381.296875 67.371094 381.609375 C 69.371094 384.355469 68.511719 387.25 73.003906 393.992188 C 77.367188 399.085938 79.984375 403.671875 84.910156 405.988281 C 108.710938 413.632812 128.339844 395.945312 118.921875 397.480469 C 90.5 402.121094 74.648438 347.574219 79.976562 324.449219 C 78.273438 314.320312 93.621094 335.9375 88.703125 325.328125 C 85.800781 317.972656 80.164062 311.996094 76.644531 305.0625 C 72.761719 297.609375 71.273438 305.59375 67.890625 309.40625 C 66.625 314.460938 59.5625 308.550781 60.96875 311.835938 C 61.9375 312.929688 62.761719 314.085938 63.5 315.300781 C 63.121094 316.304688 62.238281 318.566406 60.605469 319.175781 C 59.765625 319.789062 59.007812 320.160156 58.28125 320.417969 C 57.378906 316.644531 54.589844 311.398438 53.660156 307.339844 C 45.589844 299.109375 52.707031 314.410156 51.566406 318.6875 C 50.457031 327.617188 46.925781 315.976562 46.507812 312.972656 C 44.785156 307.625 46.003906 291.648438 36.898438 298.9375 C 36.554688 301.484375 41.148438 310.941406 39.792969 316.539062 C 40.167969 325.460938 37.132812 315.339844 37.027344 312.070312 C 35.765625 309.722656 36.242188 296.011719 30.726562 290.742188 C 29.761719 291.773438 28.464844 292.503906 27.472656 292.65625 C 27.453125 292.359375 27.433594 292.046875 27.371094 291.621094 C 27.085938 289.683594 27.425781 288.632812 28.6875 287.5625 C 31.050781 285.5625 35.570312 284.578125 38.292969 284.046875 C 39.59375 284.046875 40.863281 283.722656 41.109375 283.324219 C 41.355469 282.921875 42.308594 282.398438 43.226562 282.160156 C 44.144531 281.917969 51.304688 280.046875 57.429688 279.445312 C 61.894531 279.003906 64 279.253906 68.507812 280.710938 C 78.042969 283.792969 79.945312 285.085938 82.042969 289.992188 C 83.074219 292.40625 85.738281 298.152344 87.957031 302.761719 C 90.171875 307.375 91.984375 311.375 91.984375 311.65625 C 91.984375 311.933594 92.546875 312.824219 93.25 313.621094 C 93.953125 314.414062 97.230469 319.160156 100.53125 324.167969 C 103.835938 329.171875 108.957031 336.804688 111.894531 341.125 C 114.832031 345.445312 117.691406 349.914062 118.25 351.050781 C 118.808594 352.1875 120.195312 354.609375 121.320312 356.429688 C 126.535156 364.851562 130.574219 376.59375 131.625 386.339844 C 132.042969 390.207031 133.097656 394.519531 134.078125 396.445312 C 135.871094 399.960938 136.375 406.011719 134.957031 406.890625 C 134.589844 407.117188 134.289062 407.695312 134.183594 408.285156 C 132.480469 410.511719 129.976562 414.976562 125.246094 416.714844 C 109.027344 423.316406 79.671875 420.367188 73.542969 416.789062 C 84.410156 426.847656 87.574219 427.519531 88.417969 436.28125 C 78.707031 437.28125 39.320312 438.226562 32.632812 427.855469 C 33.085938 419.585938 60.691406 420.4375 64.296875 400.117188 C 59.875 405.269531 45.890625 428.300781 17.398438 408.105469 C 13.675781 405.464844 -14.960938 399.398438 10.039062 416.996094 C 6.144531 423.019531 -3.203125 422.496094 -3.183594 429.535156 L -3.082031 470.355469 L -2.953125 470.171875 C -2.730469 472.265625 1.105469 468.984375 5.234375 460.945312 L 9.210938 453.214844 L 9.46875 453.214844 C 18.496094 453.816406 27.308594 456.191406 36.226562 457.585938 C 40.199219 457.796875 44.175781 457.71875 48.128906 457.378906 C 48.289062 457.367188 48.460938 457.339844 48.621094 457.328125 C 49.09375 457.28125 49.570312 457.25 50.039062 457.199219 C 50.269531 457.175781 50.507812 457.148438 50.738281 457.121094 C 53.121094 456.863281 55.664062 456.5 58.511719 456.007812 C 72.058594 453.664062 90.023438 446.085938 102.414062 437.5 C 106.75 434.492188 113.160156 430.691406 116.644531 429.046875 C 125.132812 425.039062 134.015625 416.320312 136.039062 410.046875 C 137.882812 404.335938 137.789062 400.894531 135.652344 396.058594 C 134.675781 393.847656 133.589844 389.242188 133.222656 385.824219 C 132.246094 376.613281 128.09375 364.703125 122.972656 356.429688 C 121.84375 354.609375 120.457031 352.191406 119.898438 351.054688 C 119.339844 349.914062 116.484375 345.449219 113.546875 341.125 C 110.609375 336.804688 105.5 329.171875 102.183594 324.167969 C 98.867188 319.164062 95.644531 314.324219 95.027344 313.414062 C 94.414062 312.503906 91.789062 307.292969 89.21875 301.832031 C 81.304688 285.03125 81.066406 284.613281 77.546875 282.652344 C 75.738281 281.644531 71.722656 280.007812 68.609375 279.007812 C 65.378906 277.964844 63.734375 277.550781 61.457031 277.585938 Z M 27.808594 304.289062 L 28.511719 313.785156 C 27.351562 319.535156 25.695312 306.160156 27.808594 304.289062 Z M 27.808594 304.289062 " fill-opacity="1" fill-rule="nonzero"/></g><g clip-path="url(#id18)"><path fill="#f2f1ec" d="M 107.113281 51.824219 C 110.144531 48.628906 112.105469 46.765625 112.105469 46.765625 C 112.796875 49.058594 113.585938 51.242188 114.453125 53.328125 C 119.585938 65.628906 127.554688 74.503906 134.660156 82.40625 C 142.941406 91.625 150.035156 99.519531 150.035156 109.980469 C 150.035156 111.222656 149.976562 112.464844 149.851562 113.699219 C 149.730469 114.9375 149.550781 116.164062 149.308594 117.382812 C 149.066406 118.601562 148.761719 119.804688 148.402344 120.992188 C 148.042969 122.179688 147.625 123.347656 147.148438 124.496094 C 146.671875 125.644531 146.144531 126.765625 145.558594 127.863281 C 144.972656 128.957031 144.332031 130.023438 143.644531 131.054688 C 142.953125 132.085938 142.214844 133.085938 141.425781 134.042969 C 140.636719 135.003906 139.804688 135.925781 138.925781 136.800781 C 138.046875 137.679688 137.128906 138.515625 136.167969 139.300781 C 135.207031 140.089844 134.210938 140.828125 133.179688 141.519531 C 132.144531 142.210938 131.082031 142.847656 129.984375 143.433594 C 128.890625 144.019531 127.769531 144.550781 126.621094 145.023438 C 125.472656 145.5 124.304688 145.917969 123.117188 146.277344 C 121.929688 146.640625 120.722656 146.941406 119.507812 147.183594 C 118.289062 147.425781 117.058594 147.605469 115.824219 147.730469 C 114.585938 147.851562 113.347656 147.910156 112.105469 147.910156 C 110.863281 147.910156 109.625 147.851562 108.386719 147.730469 C 107.152344 147.605469 105.925781 147.425781 104.707031 147.183594 C 103.488281 146.941406 102.285156 146.640625 101.097656 146.277344 C 99.90625 145.917969 98.738281 145.5 97.589844 145.023438 C 96.441406 144.550781 95.320312 144.019531 94.226562 143.433594 C 93.128906 142.847656 92.066406 142.210938 91.035156 141.519531 C 90 140.828125 89.003906 140.089844 88.042969 139.300781 C 87.082031 138.515625 86.164062 137.679688 85.285156 136.800781 C 84.40625 135.925781 83.574219 135.003906 82.785156 134.042969 C 81.996094 133.085938 81.257812 132.085938 80.570312 131.054688 C 79.878906 130.023438 79.242188 128.957031 78.65625 127.863281 C 78.070312 126.765625 77.539062 125.644531 77.0625 124.496094 C 76.589844 123.347656 76.171875 122.179688 75.808594 120.992188 C 75.449219 119.804688 75.148438 118.601562 74.90625 117.382812 C 74.664062 116.164062 74.480469 114.9375 74.359375 113.699219 C 74.238281 112.464844 74.175781 111.222656 74.175781 109.980469 C 74.175781 88.917969 96.808594 62.675781 107.113281 51.824219 Z M 109.722656 58.277344 C 105.660156 62.671875 101.808594 67.242188 98.160156 71.988281 C 93.570312 77.996094 89.082031 84.683594 85.769531 91.394531 C 82.417969 98.179688 80.496094 104.53125 80.496094 109.980469 C 80.496094 109.980469 96.300781 119.464844 112.105469 113.144531 C 127.910156 106.820312 143.714844 109.980469 143.714844 109.980469 C 143.714844 102.390625 138.683594 96.347656 129.925781 86.59375 L 129.738281 86.390625 C 123.167969 79.070312 115.265625 70.28125 109.722656 58.269531 Z M 109.722656 58.277344 " fill-opacity="1" fill-rule="evenodd"/></g><path fill="#f2f1ec" d="M 90.316406 95.921875 C 95.5 85.550781 101.167969 78.519531 103.546875 76.136719 L 108.023438 80.613281 C 106.1875 82.445312 100.890625 88.898438 95.96875 98.753906 Z M 90.316406 95.921875 " fill-opacity="1" fill-rule="evenodd"/><g fill="#f7f7f7" fill-opacity="1"><g transform="translate(110.601363, 248.553293)"><g><path d="M 22.875 1.234375 C 15.914062 1.234375 10.65625 0.328125 7.09375 -1.484375 C 3.539062 -3.304688 1.765625 -6.367188 1.765625 -10.671875 C 1.765625 -12.117188 1.9375 -13.65625 2.28125 -15.28125 C 2.632812 -16.90625 3.007812 -18.441406 3.40625 -19.890625 L 7.796875 -18.765625 C 7.566406 -17.910156 7.300781 -16.816406 7 -15.484375 C 6.707031 -14.148438 6.5625 -13 6.5625 -12.03125 C 6.5625 -9.988281 7.078125 -8.351562 8.109375 -7.125 C 9.148438 -5.894531 10.960938 -4.992188 13.546875 -4.421875 C 16.128906 -3.859375 19.75 -3.578125 24.40625 -3.578125 C 33.507812 -3.578125 40.160156 -4.070312 44.359375 -5.0625 C 48.566406 -6.0625 50.671875 -7.910156 50.671875 -10.609375 C 50.671875 -12.054688 50.394531 -13.769531 49.84375 -15.75 C 49.300781 -17.726562 48.601562 -19.832031 47.75 -22.0625 L 52.265625 -23.640625 C 53.003906 -21.722656 53.695312 -19.664062 54.34375 -17.46875 C 54.988281 -15.28125 55.3125 -13.3125 55.3125 -11.5625 C 55.3125 -9.25 54.78125 -7.28125 53.71875 -5.65625 C 52.664062 -4.03125 50.90625 -2.707031 48.4375 -1.6875 C 45.976562 -0.675781 42.664062 0.0625 38.5 0.53125 C 34.34375 1 29.132812 1.234375 22.875 1.234375 Z M 32.5 -23.203125 C 31.675781 -23.203125 30.976562 -23.484375 30.40625 -24.046875 C 29.84375 -24.617188 29.5625 -25.296875 29.5625 -26.078125 C 29.5625 -26.859375 29.84375 -27.539062 30.40625 -28.125 C 30.976562 -28.707031 31.675781 -29 32.5 -29 C 33.28125 -29 33.953125 -28.707031 34.515625 -28.125 C 35.085938 -27.539062 35.375 -26.859375 35.375 -26.078125 C 35.375 -25.296875 35.085938 -24.617188 34.515625 -24.046875 C 33.953125 -23.484375 33.28125 -23.203125 32.5 -23.203125 Z M 24.453125 -23.203125 C 23.628906 -23.203125 22.9375 -23.484375 22.375 -24.046875 C 21.8125 -24.617188 21.53125 -25.296875 21.53125 -26.078125 C 21.53125 -26.859375 21.8125 -27.539062 22.375 -28.125 C 22.9375 -28.707031 23.628906 -29 24.453125 -29 C 25.234375 -29 25.90625 -28.707031 26.46875 -28.125 C 27.039062 -27.539062 27.328125 -26.859375 27.328125 -26.078125 C 27.328125 -25.296875 27.039062 -24.617188 26.46875 -24.046875 C 25.90625 -23.484375 25.234375 -23.203125 24.453125 -23.203125 Z M 24.453125 -23.203125 "/></g></g></g><g fill="#f7f7f7" fill-opacity="1"><g transform="translate(168.845214, 248.553293)"><g><path d="M 5.390625 0 L 4.21875 -41.875 L 8.96875 -41.875 L 10.140625 0 Z M 5.390625 0 "/></g></g></g><g fill="#f7f7f7" fill-opacity="1"><g transform="translate(182.80497, 248.553293)"><g><path d="M 0.234375 13.484375 L -1.46875 9.03125 C 2.476562 7.78125 5.515625 6.296875 7.640625 4.578125 C 9.773438 2.859375 11.242188 1.050781 12.046875 -0.84375 C 12.847656 -2.75 13.25 -4.5625 13.25 -6.28125 C 13.25 -7.375 13.128906 -8.425781 12.890625 -9.4375 C 12.660156 -10.457031 12.253906 -11.613281 11.671875 -12.90625 C 11.085938 -14.195312 10.265625 -15.800781 9.203125 -17.71875 L 13.484375 -19.890625 C 14.972656 -17.347656 16.039062 -14.941406 16.6875 -12.671875 C 17.332031 -10.398438 17.65625 -8.40625 17.65625 -6.6875 C 17.65625 -4.21875 17.253906 -1.988281 16.453125 0 C 15.648438 1.988281 14.59375 3.753906 13.28125 5.296875 C 11.976562 6.847656 10.550781 8.171875 9 9.265625 C 7.457031 10.359375 5.910156 11.253906 4.359375 11.953125 C 2.816406 12.660156 1.441406 13.171875 0.234375 13.484375 Z M 0.234375 13.484375 "/></g></g></g><g fill="#f7f7f7" fill-opacity="1"><g transform="translate(204.33114, 248.553293)"><g><path d="M 12.609375 -4.515625 C 15.503906 -4.515625 17.554688 -4.953125 18.765625 -5.828125 C 19.984375 -6.710938 20.59375 -7.9375 20.59375 -9.5 C 20.59375 -10.519531 20.238281 -11.832031 19.53125 -13.4375 C 18.832031 -15.039062 17.90625 -16.828125 16.75 -18.796875 C 15.59375 -20.773438 14.3125 -22.800781 12.90625 -24.875 L 16.953125 -27.515625 C 19.222656 -24.035156 21.070312 -20.859375 22.5 -17.984375 C 23.925781 -15.109375 24.988281 -12.515625 25.6875 -10.203125 C 26.238281 -8.484375 26.851562 -7.210938 27.53125 -6.390625 C 28.21875 -5.566406 28.929688 -5.046875 29.671875 -4.828125 C 30.421875 -4.617188 31.109375 -4.515625 31.734375 -4.515625 C 32.554688 -4.515625 33.160156 -4.289062 33.546875 -3.84375 C 33.941406 -3.394531 34.140625 -2.859375 34.140625 -2.234375 C 34.140625 -1.609375 33.863281 -1.03125 33.3125 -0.5 C 32.769531 0.03125 32.066406 0.296875 31.203125 0.296875 C 29.679688 0.296875 28.210938 -0.0351562 26.796875 -0.703125 C 25.390625 -1.367188 24.257812 -2.503906 23.40625 -4.109375 C 22.625 -2.816406 21.378906 -1.75 19.671875 -0.90625 C 17.972656 -0.0625 15.617188 0.359375 12.609375 0.359375 C 10.460938 0.359375 8.46875 0.09375 6.625 -0.4375 C 4.789062 -0.96875 3.265625 -1.703125 2.046875 -2.640625 L 4.40625 -6.6875 C 5.1875 -6.132812 6.28125 -5.632812 7.6875 -5.1875 C 9.09375 -4.738281 10.734375 -4.515625 12.609375 -4.515625 Z M 12.609375 -4.515625 "/></g></g></g><g fill="#f7f7f7" fill-opacity="1"><g transform="translate(235.535301, 248.553293)"><g><path d="M 0 0.296875 L 0.59375 -4.515625 C 1.914062 -4.515625 3.289062 -4.535156 4.71875 -4.578125 C 6.144531 -4.617188 7.523438 -4.71875 8.859375 -4.875 C 7.921875 -5.726562 7 -6.835938 6.09375 -8.203125 C 5.195312 -9.578125 4.75 -11.242188 4.75 -13.203125 C 4.75 -15.273438 5.238281 -17.160156 6.21875 -18.859375 C 7.195312 -20.554688 8.457031 -21.894531 10 -22.875 C 11.539062 -23.851562 13.210938 -24.34375 15.015625 -24.34375 C 16.929688 -24.34375 18.613281 -23.8125 20.0625 -22.75 C 21.507812 -21.695312 22.632812 -20.359375 23.4375 -18.734375 C 24.238281 -17.117188 24.640625 -15.429688 24.640625 -13.671875 C 24.640625 -11.828125 24.265625 -10.179688 23.515625 -8.734375 C 22.773438 -7.285156 21.78125 -6.015625 20.53125 -4.921875 C 22.09375 -4.804688 23.691406 -4.707031 25.328125 -4.625 C 26.972656 -4.550781 28.40625 -4.515625 29.625 -4.515625 C 30.445312 -4.515625 31.039062 -4.289062 31.40625 -3.84375 C 31.78125 -3.394531 31.96875 -2.859375 31.96875 -2.234375 C 31.96875 -1.609375 31.691406 -1.03125 31.140625 -0.5 C 30.597656 0.03125 29.894531 0.296875 29.03125 0.296875 C 26.644531 0.296875 24.160156 0.109375 21.578125 -0.265625 C 19.003906 -0.640625 16.738281 -1.097656 14.78125 -1.640625 C 14.15625 -1.410156 13.507812 -1.195312 12.84375 -1 C 11.039062 -0.488281 8.984375 -0.144531 6.671875 0.03125 C 4.367188 0.207031 2.144531 0.296875 0 0.296875 Z M 9.5625 -13.078125 C 9.5625 -11.554688 10.03125 -10.21875 10.96875 -9.0625 C 11.90625 -7.90625 12.960938 -6.976562 14.140625 -6.28125 C 15.742188 -6.976562 17.09375 -7.910156 18.1875 -9.078125 C 19.28125 -10.253906 19.828125 -11.664062 19.828125 -13.3125 C 19.828125 -14.207031 19.609375 -15.132812 19.171875 -16.09375 C 18.742188 -17.050781 18.160156 -17.863281 17.421875 -18.53125 C 16.679688 -19.195312 15.820312 -19.53125 14.84375 -19.53125 C 13.90625 -19.53125 13.035156 -19.207031 12.234375 -18.5625 C 11.429688 -17.914062 10.785156 -17.101562 10.296875 -16.125 C 9.804688 -15.144531 9.5625 -14.128906 9.5625 -13.078125 Z M 18.5 -30.203125 C 17.675781 -30.203125 16.976562 -30.484375 16.40625 -31.046875 C 15.84375 -31.617188 15.5625 -32.296875 15.5625 -33.078125 C 15.5625 -33.859375 15.84375 -34.539062 16.40625 -35.125 C 16.976562 -35.707031 17.675781 -36 18.5 -36 C 19.28125 -36 19.953125 -35.707031 20.515625 -35.125 C 21.085938 -34.539062 21.375 -33.859375 21.375 -33.078125 C 21.375 -32.296875 21.085938 -31.617188 20.515625 -31.046875 C 19.953125 -30.484375 19.28125 -30.203125 18.5 -30.203125 Z M 10.453125 -30.203125 C 9.628906 -30.203125 8.9375 -30.484375 8.375 -31.046875 C 7.8125 -31.617188 7.53125 -32.296875 7.53125 -33.078125 C 7.53125 -33.859375 7.8125 -34.539062 8.375 -35.125 C 8.9375 -35.707031 9.628906 -36 10.453125 -36 C 11.234375 -36 11.90625 -35.707031 12.46875 -35.125 C 13.039062 -34.539062 13.328125 -33.859375 13.328125 -33.078125 C 13.328125 -32.296875 13.039062 -31.617188 12.46875 -31.046875 C 11.90625 -30.484375 11.234375 -30.203125 10.453125 -30.203125 Z M 10.453125 -30.203125 "/></g></g></g><g fill="#f7f7f7" fill-opacity="1"><g transform="translate(264.569238, 248.553293)"><g><path d="M 0 0.296875 L 0.53125 -4.515625 C 2.757812 -4.515625 4.320312 -4.726562 5.21875 -5.15625 C 6.113281 -5.59375 6.628906 -6.347656 6.765625 -7.421875 C 6.910156 -8.492188 6.941406 -10.03125 6.859375 -12.03125 L 5.75 -41.875 L 10.5 -41.875 L 11.671875 -12.546875 C 11.785156 -9.773438 11.597656 -7.429688 11.109375 -5.515625 C 10.617188 -3.597656 9.523438 -2.148438 7.828125 -1.171875 C 6.128906 -0.191406 3.519531 0.296875 0 0.296875 Z M 0 0.296875 "/></g></g></g><g fill="#f7f7f7" fill-opacity="1"><g transform="translate(279.819395, 248.553293)"><g><path d="M 5.390625 0 L 4.21875 -41.875 L 8.96875 -41.875 L 10.140625 0 Z M 5.390625 0 "/></g></g></g><g fill="#f7f7f7" fill-opacity="1"><g transform="translate(293.776418, 248.553293)"><g/></g></g><g fill="#f7f7f7" fill-opacity="1"><g transform="translate(305.507303, 248.553293)"><g/></g></g><g fill="#f7f7f7" fill-opacity="1"><g transform="translate(317.238189, 248.553293)"><g/></g></g><g fill="#f7f7f7" fill-opacity="1"><g transform="translate(328.969074, 248.553293)"><g/></g></g><g fill="#f7f7f7" fill-opacity="1"><g transform="translate(340.699959, 248.553293)"><g/></g></g><g fill="#f7f7f7" fill-opacity="1"><g transform="translate(352.430845, 248.553293)"><g/></g></g><g fill="#f7f7f7" fill-opacity="1"><g transform="translate(364.16173, 248.553293)"><g/></g></g><g fill="#f7f7f7" fill-opacity="1"><g transform="translate(375.892615, 248.553293)"><g/></g></g><g fill="#f7f7f7" fill-opacity="1"><g transform="translate(387.613639, 248.553293)"><g><path d="M 18.359375 13.609375 C 15.421875 13.609375 12.691406 13.066406 10.171875 11.984375 C 7.648438 10.910156 5.617188 9.367188 4.078125 7.359375 C 2.535156 5.347656 1.765625 2.914062 1.765625 0.0625 C 1.765625 -1.34375 1.957031 -2.90625 2.34375 -4.625 C 2.738281 -6.351562 3.363281 -8.253906 4.21875 -10.328125 L 8.453125 -8.6875 C 7.828125 -7.039062 7.351562 -5.53125 7.03125 -4.15625 C 6.71875 -2.789062 6.5625 -1.523438 6.5625 -0.359375 C 6.5625 1.640625 7.097656 3.320312 8.171875 4.6875 C 9.253906 6.0625 10.703125 7.085938 12.515625 7.765625 C 14.335938 8.453125 16.34375 8.796875 18.53125 8.796875 C 22.09375 8.796875 24.878906 8.273438 26.890625 7.234375 C 28.910156 6.203125 30.335938 4.894531 31.171875 3.3125 C 32.015625 1.726562 32.4375 0.113281 32.4375 -1.53125 C 32.4375 -4.101562 32.148438 -6.472656 31.578125 -8.640625 C 31.015625 -10.816406 30.398438 -13.0625 29.734375 -15.375 L 34.484375 -16.65625 C 35.109375 -14.425781 35.535156 -12.8125 35.765625 -11.8125 C 36.003906 -10.820312 36.222656 -10.015625 36.421875 -9.390625 C 36.859375 -7.941406 37.359375 -6.875 37.921875 -6.1875 C 38.484375 -5.5 39.144531 -5.046875 39.90625 -4.828125 C 40.675781 -4.617188 41.550781 -4.515625 42.53125 -4.515625 C 43.269531 -4.515625 43.953125 -4.613281 44.578125 -4.8125 C 45.203125 -5.007812 45.773438 -5.476562 46.296875 -6.21875 C 46.828125 -6.957031 47.296875 -8.140625 47.703125 -9.765625 C 48.117188 -11.390625 48.503906 -13.648438 48.859375 -16.546875 L 53.3125 -15.71875 C 53.195312 -15.007812 53.0625 -14.144531 52.90625 -13.125 C 52.75 -12.113281 52.601562 -11.109375 52.46875 -10.109375 C 52.332031 -9.117188 52.265625 -8.289062 52.265625 -7.625 C 52.265625 -7.070312 52.390625 -6.550781 52.640625 -6.0625 C 52.898438 -5.582031 53.398438 -5.203125 54.140625 -4.921875 C 54.878906 -4.648438 56.03125 -4.515625 57.59375 -4.515625 C 59.550781 -4.515625 60.96875 -4.914062 61.84375 -5.71875 C 62.726562 -6.519531 63.171875 -7.78125 63.171875 -9.5 C 63.171875 -10.832031 63.117188 -12.300781 63.015625 -13.90625 C 62.921875 -15.507812 62.738281 -17.519531 62.46875 -19.9375 L 66.75 -20.234375 C 66.988281 -17.066406 67.253906 -14.46875 67.546875 -12.4375 C 67.835938 -10.40625 68.265625 -8.8125 68.828125 -7.65625 C 69.398438 -6.5 70.171875 -5.6875 71.140625 -5.21875 C 72.117188 -4.75 73.410156 -4.515625 75.015625 -4.515625 C 75.835938 -4.515625 76.4375 -4.289062 76.8125 -3.84375 C 77.1875 -3.394531 77.375 -2.859375 77.375 -2.234375 C 77.375 -1.609375 77.097656 -1.03125 76.546875 -0.5 C 75.992188 0.03125 75.289062 0.296875 74.4375 0.296875 C 72.25 0.296875 70.441406 -0.191406 69.015625 -1.171875 C 67.585938 -2.148438 66.539062 -3.382812 65.875 -4.875 C 65.09375 -2.800781 63.910156 -1.421875 62.328125 -0.734375 C 60.742188 -0.046875 58.992188 0.296875 57.078125 0.296875 C 55.078125 0.296875 53.488281 0.015625 52.3125 -0.546875 C 51.144531 -1.117188 50.285156 -2.007812 49.734375 -3.21875 C 48.921875 -1.96875 47.925781 -1.066406 46.75 -0.515625 C 45.570312 0.0234375 44.066406 0.296875 42.234375 0.296875 C 41.097656 0.296875 40.117188 0.160156 39.296875 -0.109375 C 38.472656 -0.390625 37.789062 -0.765625 37.25 -1.234375 C 37.007812 0.609375 36.535156 2.414062 35.828125 4.1875 C 35.128906 5.96875 34.066406 7.5625 32.640625 8.96875 C 31.210938 10.382812 29.332031 11.507812 27 12.34375 C 24.675781 13.1875 21.796875 13.609375 18.359375 13.609375 Z M 18.359375 13.609375 "/></g></g></g><g fill="#f7f7f7" fill-opacity="1"><g transform="translate(462.046105, 248.553293)"><g><path d="M 0 0.296875 L 0.59375 -4.515625 C 2.539062 -4.515625 4.0625 -4.660156 5.15625 -4.953125 C 6.25 -5.242188 7.078125 -5.8125 7.640625 -6.65625 C 8.210938 -7.5 8.675781 -8.722656 9.03125 -10.328125 C 9.382812 -11.929688 9.816406 -14.019531 10.328125 -16.59375 L 14.90625 -15.71875 C 14.664062 -14.664062 14.398438 -13.453125 14.109375 -12.078125 C 13.816406 -10.710938 13.671875 -9.5625 13.671875 -8.625 C 13.671875 -8.039062 13.707031 -7.492188 13.78125 -6.984375 C 13.863281 -6.472656 14.15625 -6.039062 14.65625 -5.6875 C 15.164062 -5.332031 16.023438 -5.046875 17.234375 -4.828125 C 18.453125 -4.617188 20.195312 -4.515625 22.46875 -4.515625 C 23.289062 -4.515625 23.882812 -4.289062 24.25 -3.84375 C 24.625 -3.394531 24.8125 -2.859375 24.8125 -2.234375 C 24.8125 -1.609375 24.535156 -1.03125 23.984375 -0.5 C 23.441406 0.03125 22.738281 0.296875 21.875 0.296875 C 19.332031 0.296875 17.347656 0.148438 15.921875 -0.140625 C 14.492188 -0.441406 13.4375 -0.875 12.75 -1.4375 C 12.070312 -2 11.578125 -2.710938 11.265625 -3.578125 C 10.128906 -1.972656 8.726562 -0.925781 7.0625 -0.4375 C 5.40625 0.0507812 3.050781 0.296875 0 0.296875 Z M 14.5 11.09375 C 13.675781 11.09375 12.976562 10.804688 12.40625 10.234375 C 11.84375 9.671875 11.5625 9 11.5625 8.21875 C 11.5625 7.425781 11.84375 6.738281 12.40625 6.15625 C 12.976562 5.570312 13.675781 5.28125 14.5 5.28125 C 15.28125 5.28125 15.953125 5.570312 16.515625 6.15625 C 17.085938 6.738281 17.375 7.425781 17.375 8.21875 C 17.375 9 17.085938 9.671875 16.515625 10.234375 C 15.953125 10.804688 15.28125 11.09375 14.5 11.09375 Z M 6.453125 11.09375 C 5.628906 11.09375 4.9375 10.804688 4.375 10.234375 C 3.8125 9.671875 3.53125 9 3.53125 8.21875 C 3.53125 7.425781 3.8125 6.738281 4.375 6.15625 C 4.9375 5.570312 5.628906 5.28125 6.453125 5.28125 C 7.234375 5.28125 7.90625 5.570312 8.46875 6.15625 C 9.039062 6.738281 9.328125 7.425781 9.328125 8.21875 C 9.328125 9 9.039062 9.671875 8.46875 10.234375 C 7.90625 10.804688 7.234375 11.09375 6.453125 11.09375 Z M 6.453125 11.09375 "/></g></g></g><g fill="#f7f7f7" fill-opacity="1"><g transform="translate(483.924205, 248.553293)"><g><path d="M 0 0.296875 L 0.59375 -4.515625 C 1.84375 -4.515625 2.859375 -4.601562 3.640625 -4.78125 C 4.421875 -4.957031 5.070312 -5.40625 5.59375 -6.125 C 6.125 -6.851562 6.625 -8 7.09375 -9.5625 C 7.5625 -11.125 8.109375 -13.3125 8.734375 -16.125 L 13.140625 -14.90625 C 12.898438 -13.882812 12.625 -12.6875 12.3125 -11.3125 C 12 -9.945312 11.84375 -8.71875 11.84375 -7.625 C 11.84375 -6.644531 12.210938 -5.878906 12.953125 -5.328125 C 13.703125 -4.785156 15.054688 -4.515625 17.015625 -4.515625 C 18.179688 -4.515625 19.132812 -4.613281 19.875 -4.8125 C 20.625 -5.007812 21.242188 -5.476562 21.734375 -6.21875 C 22.222656 -6.957031 22.660156 -8.140625 23.046875 -9.765625 C 23.441406 -11.390625 23.851562 -13.648438 24.28125 -16.546875 L 28.734375 -15.71875 C 28.617188 -15.007812 28.472656 -14.144531 28.296875 -13.125 C 28.117188 -12.113281 27.972656 -11.109375 27.859375 -10.109375 C 27.742188 -9.117188 27.6875 -8.289062 27.6875 -7.625 C 27.6875 -7.070312 27.8125 -6.550781 28.0625 -6.0625 C 28.320312 -5.582031 28.832031 -5.203125 29.59375 -4.921875 C 30.351562 -4.648438 31.5 -4.515625 33.03125 -4.515625 C 34.707031 -4.515625 36.050781 -4.847656 37.0625 -5.515625 C 38.082031 -6.179688 38.59375 -7.53125 38.59375 -9.5625 C 38.59375 -11.007812 38.25 -12.863281 37.5625 -15.125 C 36.882812 -17.394531 36.113281 -19.644531 35.25 -21.875 L 40 -23.640625 C 40.46875 -22.347656 40.9375 -20.910156 41.40625 -19.328125 C 41.875 -17.742188 42.265625 -16.171875 42.578125 -14.609375 C 42.890625 -13.046875 43.046875 -11.675781 43.046875 -10.5 C 43.046875 -6.863281 42.144531 -4.15625 40.34375 -2.375 C 38.550781 -0.59375 36.09375 0.296875 32.96875 0.296875 C 30.8125 0.296875 29.117188 0.015625 27.890625 -0.546875 C 26.660156 -1.117188 25.769531 -2.007812 25.21875 -3.21875 C 24.28125 -1.78125 23.15625 -0.832031 21.84375 -0.375 C 20.539062 0.0703125 18.695312 0.296875 16.3125 0.296875 C 15.488281 0.296875 14.613281 0.195312 13.6875 0 C 12.769531 -0.195312 11.921875 -0.578125 11.140625 -1.140625 C 10.359375 -1.710938 9.753906 -2.566406 9.328125 -3.703125 C 8.304688 -1.972656 7.039062 -0.875 5.53125 -0.40625 C 4.03125 0.0625 2.1875 0.296875 0 0.296875 Z M 0 0.296875 "/></g></g></g><g fill="#f7f7f7" fill-opacity="1"><g transform="translate(529.909276, 248.553293)"><g><path d="M 16.953125 0.296875 C 13.785156 0.296875 11.378906 -0.0507812 9.734375 -0.75 C 8.085938 -1.457031 6.953125 -2.554688 6.328125 -4.046875 C 5.703125 -5.535156 5.351562 -7.453125 5.28125 -9.796875 L 4.21875 -37.78125 L 9.03125 -37.78125 L 10.09375 -11.671875 C 10.164062 -9.753906 10.347656 -8.273438 10.640625 -7.234375 C 10.941406 -6.203125 11.609375 -5.488281 12.640625 -5.09375 C 13.671875 -4.707031 15.300781 -4.515625 17.53125 -4.515625 C 18.351562 -4.515625 18.953125 -4.289062 19.328125 -3.84375 C 19.703125 -3.394531 19.890625 -2.859375 19.890625 -2.234375 C 19.890625 -1.609375 19.613281 -1.03125 19.0625 -0.5 C 18.507812 0.03125 17.804688 0.296875 16.953125 0.296875 Z M 1.28125 -40.90625 L 0.578125 -44.078125 C 1.171875 -44.191406 1.679688 -44.304688 2.109375 -44.421875 C 2.535156 -44.535156 2.945312 -44.632812 3.34375 -44.71875 C 2.59375 -45.226562 1.941406 -45.890625 1.390625 -46.703125 C 0.847656 -47.523438 0.578125 -48.425781 0.578125 -49.40625 C 0.578125 -51.164062 1.191406 -52.492188 2.421875 -53.390625 C 3.660156 -54.296875 5.0625 -54.75 6.625 -54.75 C 7.519531 -54.75 8.4375 -54.59375 9.375 -54.28125 L 8.90625 -51.34375 C 8.519531 -51.425781 8.140625 -51.503906 7.765625 -51.578125 C 7.398438 -51.660156 7.019531 -51.703125 6.625 -51.703125 C 4.707031 -51.703125 3.75 -50.992188 3.75 -49.578125 C 3.75 -48.566406 4.128906 -47.726562 4.890625 -47.0625 C 5.648438 -46.394531 6.40625 -45.960938 7.15625 -45.765625 C 8.632812 -46.203125 9.941406 -46.632812 11.078125 -47.0625 L 12.015625 -44.078125 C 11.078125 -43.722656 9.972656 -43.347656 8.703125 -42.953125 C 7.429688 -42.566406 6.140625 -42.1875 4.828125 -41.8125 C 3.523438 -41.4375 2.34375 -41.132812 1.28125 -40.90625 Z M 1.28125 -40.90625 "/></g></g></g><g fill="#f7f7f7" fill-opacity="1"><g transform="translate(546.860409, 248.553293)"><g><path d="M 0 0.296875 L 0.59375 -4.515625 C 2.851562 -4.515625 4.640625 -4.601562 5.953125 -4.78125 C 7.265625 -4.957031 8.191406 -5.394531 8.734375 -6.09375 C 9.285156 -6.800781 9.5625 -7.957031 9.5625 -9.5625 C 9.5625 -11.007812 9.21875 -12.863281 8.53125 -15.125 C 7.851562 -17.394531 7.082031 -19.644531 6.21875 -21.875 L 10.96875 -23.640625 C 11.476562 -22.347656 11.957031 -20.910156 12.40625 -19.328125 C 12.851562 -17.742188 13.234375 -16.171875 13.546875 -14.609375 C 13.859375 -13.046875 14.015625 -11.675781 14.015625 -10.5 C 14.015625 -6.550781 12.921875 -3.765625 10.734375 -2.140625 C 8.546875 -0.515625 4.96875 0.296875 0 0.296875 Z M 12.5 -30.203125 C 11.675781 -30.203125 10.976562 -30.484375 10.40625 -31.046875 C 9.84375 -31.617188 9.5625 -32.296875 9.5625 -33.078125 C 9.5625 -33.859375 9.84375 -34.539062 10.40625 -35.125 C 10.976562 -35.707031 11.675781 -36 12.5 -36 C 13.28125 -36 13.953125 -35.707031 14.515625 -35.125 C 15.085938 -34.539062 15.375 -33.859375 15.375 -33.078125 C 15.375 -32.296875 15.085938 -31.617188 14.515625 -31.046875 C 13.953125 -30.484375 13.28125 -30.203125 12.5 -30.203125 Z M 4.453125 -30.203125 C 3.628906 -30.203125 2.9375 -30.484375 2.375 -31.046875 C 1.8125 -31.617188 1.53125 -32.296875 1.53125 -33.078125 C 1.53125 -33.859375 1.8125 -34.539062 2.375 -35.125 C 2.9375 -35.707031 3.628906 -36 4.453125 -36 C 5.234375 -36 5.90625 -35.707031 6.46875 -35.125 C 7.039062 -34.539062 7.328125 -33.859375 7.328125 -33.078125 C 7.328125 -32.296875 7.039062 -31.617188 6.46875 -31.046875 C 5.90625 -30.484375 5.234375 -30.203125 4.453125 -30.203125 Z M 4.453125 -30.203125 "/></g></g></g><g fill="#365b6d" fill-opacity="1"><g transform="translate(249.09892, 359.477182)"><g><path d="M 11.28125 0.09375 C 10.269531 0.09375 9.40625 -0.0351562 8.6875 -0.296875 C 7.96875 -0.566406 7.425781 -1.03125 7.0625 -1.6875 C 6.207031 -1.519531 5.390625 -1.46875 4.609375 -1.53125 C 3.828125 -1.59375 3.128906 -1.757812 2.515625 -2.03125 C 1.910156 -2.3125 1.429688 -2.710938 1.078125 -3.234375 C 0.722656 -3.753906 0.546875 -4.398438 0.546875 -5.171875 C 0.546875 -6.078125 0.789062 -6.867188 1.28125 -7.546875 C 1.78125 -8.234375 2.457031 -8.8125 3.3125 -9.28125 C 4.175781 -9.757812 5.148438 -10.128906 6.234375 -10.390625 L 6.171875 -11.9375 L 9.03125 -11.9375 L 9.375 -4.75 C 9.414062 -3.90625 9.601562 -3.359375 9.9375 -3.109375 C 10.269531 -2.859375 10.785156 -2.734375 11.484375 -2.734375 C 12.003906 -2.734375 12.367188 -2.601562 12.578125 -2.34375 C 12.796875 -2.082031 12.90625 -1.753906 12.90625 -1.359375 C 12.90625 -0.941406 12.765625 -0.59375 12.484375 -0.3125 C 12.210938 -0.0390625 11.8125 0.09375 11.28125 0.09375 Z M 3.390625 -5.4375 C 3.390625 -5.125 3.539062 -4.878906 3.84375 -4.703125 C 4.144531 -4.523438 4.53125 -4.410156 5 -4.359375 C 5.476562 -4.316406 5.976562 -4.34375 6.5 -4.4375 L 6.375 -7.578125 C 5.457031 -7.421875 4.726562 -7.144531 4.1875 -6.75 C 3.65625 -6.363281 3.390625 -5.925781 3.390625 -5.4375 Z M 3.984375 -14.015625 C 3.597656 -14.015625 3.265625 -14.15625 2.984375 -14.4375 C 2.703125 -14.71875 2.5625 -15.046875 2.5625 -15.421875 C 2.5625 -15.816406 2.703125 -16.15625 2.984375 -16.4375 C 3.265625 -16.71875 3.597656 -16.859375 3.984375 -16.859375 C 4.367188 -16.859375 4.695312 -16.71875 4.96875 -16.4375 C 5.238281 -16.15625 5.375 -15.816406 5.375 -15.421875 C 5.375 -15.046875 5.238281 -14.71875 4.96875 -14.4375 C 4.695312 -14.15625 4.367188 -14.015625 3.984375 -14.015625 Z M 7.5 -14 C 7.101562 -14 6.765625 -14.132812 6.484375 -14.40625 C 6.210938 -14.675781 6.078125 -15.007812 6.078125 -15.40625 C 6.078125 -15.789062 6.210938 -16.125 6.484375 -16.40625 C 6.765625 -16.695312 7.101562 -16.84375 7.5 -16.84375 C 7.875 -16.84375 8.195312 -16.695312 8.46875 -16.40625 C 8.738281 -16.125 8.875 -15.789062 8.875 -15.40625 C 8.875 -15.007812 8.738281 -14.675781 8.46875 -14.40625 C 8.195312 -14.132812 7.875 -14 7.5 -14 Z M 7.5 -14 "/></g></g></g><g fill="#365b6d" fill-opacity="1"><g transform="translate(260.460105, 359.477182)"><g><path d="M 0 0.09375 L 0.203125 -2.734375 C 0.691406 -2.734375 1.109375 -2.78125 1.453125 -2.875 C 1.804688 -2.976562 2.101562 -3.171875 2.34375 -3.453125 C 2.59375 -3.742188 2.800781 -4.175781 2.96875 -4.75 C 3.144531 -5.320312 3.300781 -6.078125 3.4375 -7.015625 L 6.09375 -6.578125 C 6.039062 -6.265625 5.976562 -5.890625 5.90625 -5.453125 C 5.84375 -5.023438 5.8125 -4.628906 5.8125 -4.265625 C 5.8125 -3.773438 6.007812 -3.394531 6.40625 -3.125 C 6.8125 -2.863281 7.507812 -2.734375 8.5 -2.734375 C 9 -2.734375 9.359375 -2.601562 9.578125 -2.34375 C 9.804688 -2.082031 9.921875 -1.753906 9.921875 -1.359375 C 9.921875 -0.941406 9.78125 -0.59375 9.5 -0.3125 C 9.226562 -0.0390625 8.828125 0.09375 8.296875 0.09375 C 7.347656 0.09375 6.539062 -0.0234375 5.875 -0.265625 C 5.207031 -0.503906 4.71875 -0.9375 4.40625 -1.5625 C 4.039062 -1.070312 3.609375 -0.707031 3.109375 -0.46875 C 2.617188 -0.238281 2.101562 -0.0859375 1.5625 -0.015625 C 1.03125 0.0546875 0.507812 0.09375 0 0.09375 Z M 5.6875 4.703125 C 5.289062 4.703125 4.953125 4.566406 4.671875 4.296875 C 4.398438 4.023438 4.265625 3.695312 4.265625 3.3125 C 4.265625 2.914062 4.398438 2.578125 4.671875 2.296875 C 4.953125 2.015625 5.289062 1.875 5.6875 1.875 C 6.0625 1.875 6.382812 2.015625 6.65625 2.296875 C 6.925781 2.578125 7.0625 2.914062 7.0625 3.3125 C 7.0625 3.695312 6.925781 4.023438 6.65625 4.296875 C 6.382812 4.566406 6.0625 4.703125 5.6875 4.703125 Z M 2.171875 4.703125 C 1.785156 4.703125 1.453125 4.566406 1.171875 4.296875 C 0.890625 4.023438 0.75 3.695312 0.75 3.3125 C 0.75 2.914062 0.890625 2.578125 1.171875 2.296875 C 1.453125 2.015625 1.785156 1.875 2.171875 1.875 C 2.554688 1.875 2.882812 2.015625 3.15625 2.296875 C 3.425781 2.578125 3.5625 2.914062 3.5625 3.3125 C 3.5625 3.695312 3.425781 4.023438 3.15625 4.296875 C 2.882812 4.566406 2.554688 4.703125 2.171875 4.703125 Z M 2.171875 4.703125 "/></g></g></g><g fill="#365b6d" fill-opacity="1"><g transform="translate(268.838985, 359.477182)"><g><path d="M 0 0.09375 L 0.203125 -2.734375 C 0.523438 -2.734375 0.773438 -2.800781 0.953125 -2.9375 C 1.140625 -3.070312 1.320312 -3.304688 1.5 -3.640625 C 1.675781 -3.972656 1.921875 -4.4375 2.234375 -5.03125 C 2.910156 -6.320312 3.628906 -7.21875 4.390625 -7.71875 C 5.160156 -8.21875 5.898438 -8.46875 6.609375 -8.46875 C 7.359375 -8.46875 8.046875 -8.21875 8.671875 -7.71875 C 9.304688 -7.226562 9.898438 -6.320312 10.453125 -5 C 10.847656 -4.070312 11.238281 -3.460938 11.625 -3.171875 C 12.019531 -2.878906 12.4375 -2.734375 12.875 -2.734375 C 13.382812 -2.734375 13.742188 -2.601562 13.953125 -2.34375 C 14.171875 -2.082031 14.28125 -1.753906 14.28125 -1.359375 C 14.28125 -0.941406 14.140625 -0.59375 13.859375 -0.3125 C 13.578125 -0.0390625 13.179688 0.09375 12.671875 0.09375 C 12.066406 0.09375 11.515625 0.0078125 11.015625 -0.15625 C 10.515625 -0.332031 10.101562 -0.59375 9.78125 -0.9375 C 9.550781 -0.59375 9.234375 -0.289062 8.828125 -0.03125 C 8.429688 0.226562 7.953125 0.359375 7.390625 0.359375 C 7.046875 0.359375 6.644531 0.296875 6.1875 0.171875 C 5.738281 0.046875 5.273438 -0.164062 4.796875 -0.46875 C 4.316406 -0.78125 3.875 -1.195312 3.46875 -1.71875 C 3.070312 -1.007812 2.617188 -0.53125 2.109375 -0.28125 C 1.597656 -0.03125 0.894531 0.09375 0 0.09375 Z M 4.640625 -4.125 C 4.898438 -3.695312 5.273438 -3.3125 5.765625 -2.96875 C 6.253906 -2.625 6.757812 -2.453125 7.28125 -2.453125 C 7.550781 -2.453125 7.773438 -2.554688 7.953125 -2.765625 C 8.128906 -2.972656 8.140625 -3.289062 7.984375 -3.71875 C 7.878906 -3.945312 7.742188 -4.21875 7.578125 -4.53125 C 7.410156 -4.84375 7.222656 -5.109375 7.015625 -5.328125 C 6.804688 -5.546875 6.578125 -5.65625 6.328125 -5.65625 C 6.054688 -5.65625 5.78125 -5.535156 5.5 -5.296875 C 5.21875 -5.054688 4.929688 -4.664062 4.640625 -4.125 Z M 4.640625 -4.125 "/></g></g></g><g fill="#365b6d" fill-opacity="1"><g transform="translate(281.579748, 359.477182)"><g><path d="M 0 0.09375 L 0.203125 -2.734375 C 0.691406 -2.734375 1.109375 -2.78125 1.453125 -2.875 C 1.804688 -2.976562 2.101562 -3.171875 2.34375 -3.453125 C 2.59375 -3.742188 2.800781 -4.175781 2.96875 -4.75 C 3.144531 -5.320312 3.300781 -6.078125 3.4375 -7.015625 L 6.09375 -6.578125 C 6.039062 -6.265625 5.976562 -5.890625 5.90625 -5.453125 C 5.84375 -5.023438 5.8125 -4.628906 5.8125 -4.265625 C 5.8125 -3.773438 6.007812 -3.394531 6.40625 -3.125 C 6.8125 -2.863281 7.507812 -2.734375 8.5 -2.734375 C 9 -2.734375 9.359375 -2.601562 9.578125 -2.34375 C 9.804688 -2.082031 9.921875 -1.753906 9.921875 -1.359375 C 9.921875 -0.941406 9.78125 -0.59375 9.5 -0.3125 C 9.226562 -0.0390625 8.828125 0.09375 8.296875 0.09375 C 7.347656 0.09375 6.539062 -0.0234375 5.875 -0.265625 C 5.207031 -0.503906 4.71875 -0.9375 4.40625 -1.5625 C 4.039062 -1.070312 3.609375 -0.707031 3.109375 -0.46875 C 2.617188 -0.238281 2.101562 -0.0859375 1.5625 -0.015625 C 1.03125 0.0546875 0.507812 0.09375 0 0.09375 Z M 5.6875 4.703125 C 5.289062 4.703125 4.953125 4.566406 4.671875 4.296875 C 4.398438 4.023438 4.265625 3.695312 4.265625 3.3125 C 4.265625 2.914062 4.398438 2.578125 4.671875 2.296875 C 4.953125 2.015625 5.289062 1.875 5.6875 1.875 C 6.0625 1.875 6.382812 2.015625 6.65625 2.296875 C 6.925781 2.578125 7.0625 2.914062 7.0625 3.3125 C 7.0625 3.695312 6.925781 4.023438 6.65625 4.296875 C 6.382812 4.566406 6.0625 4.703125 5.6875 4.703125 Z M 2.171875 4.703125 C 1.785156 4.703125 1.453125 4.566406 1.171875 4.296875 C 0.890625 4.023438 0.75 3.695312 0.75 3.3125 C 0.75 2.914062 0.890625 2.578125 1.171875 2.296875 C 1.453125 2.015625 1.785156 1.875 2.171875 1.875 C 2.554688 1.875 2.882812 2.015625 3.15625 2.296875 C 3.425781 2.578125 3.5625 2.914062 3.5625 3.3125 C 3.5625 3.695312 3.425781 4.023438 3.15625 4.296875 C 2.882812 4.566406 2.554688 4.703125 2.171875 4.703125 Z M 2.171875 4.703125 "/></g></g></g><g fill="#365b6d" fill-opacity="1"><g transform="translate(289.958629, 359.477182)"><g><path d="M 0 0.09375 L 0.203125 -2.734375 C 0.828125 -2.734375 1.273438 -2.796875 1.546875 -2.921875 C 1.816406 -3.054688 1.976562 -3.300781 2.03125 -3.65625 C 2.082031 -4.019531 2.09375 -4.546875 2.0625 -5.234375 L 1.75 -14.859375 L 4.625 -14.859375 L 4.96875 -5.25 C 5 -4.5625 5.082031 -4.035156 5.21875 -3.671875 C 5.351562 -3.316406 5.578125 -3.070312 5.890625 -2.9375 C 6.210938 -2.800781 6.644531 -2.734375 7.1875 -2.734375 C 7.695312 -2.734375 8.0625 -2.601562 8.28125 -2.34375 C 8.5 -2.082031 8.609375 -1.753906 8.609375 -1.359375 C 8.609375 -0.941406 8.460938 -0.59375 8.171875 -0.3125 C 7.890625 -0.0390625 7.492188 0.09375 6.984375 0.09375 C 6.273438 0.09375 5.628906 0 5.046875 -0.1875 C 4.472656 -0.375 4.035156 -0.757812 3.734375 -1.34375 C 3.359375 -0.769531 2.867188 -0.382812 2.265625 -0.1875 C 1.671875 0 0.914062 0.09375 0 0.09375 Z M 0 0.09375 "/></g></g></g><g fill="#365b6d" fill-opacity="1"><g transform="translate(297.018798, 359.477182)"><g><path d="M -0.078125 0.09375 L 0.125 -2.734375 C 0.769531 -2.734375 1.375 -2.765625 1.9375 -2.828125 C 2.5 -2.890625 3.015625 -2.972656 3.484375 -3.078125 C 3.203125 -3.410156 2.90625 -3.722656 2.59375 -4.015625 C 2.28125 -4.316406 2.003906 -4.566406 1.765625 -4.765625 C 1.703125 -4.816406 1.625 -4.960938 1.53125 -5.203125 C 1.445312 -5.441406 1.367188 -5.6875 1.296875 -5.9375 C 1.234375 -6.195312 1.203125 -6.390625 1.203125 -6.515625 C 1.203125 -6.828125 1.34375 -7.15625 1.625 -7.5 C 1.914062 -7.851562 2.304688 -8.179688 2.796875 -8.484375 C 3.296875 -8.796875 3.847656 -9.050781 4.453125 -9.25 C 5.054688 -9.445312 5.671875 -9.546875 6.296875 -9.546875 C 7.535156 -9.546875 8.476562 -9.273438 9.125 -8.734375 C 9.769531 -8.191406 10.09375 -7.476562 10.09375 -6.59375 C 10.09375 -5.988281 9.96875 -5.378906 9.71875 -4.765625 C 9.46875 -4.160156 9.085938 -3.585938 8.578125 -3.046875 C 9.003906 -2.953125 9.453125 -2.875 9.921875 -2.8125 C 10.398438 -2.757812 10.890625 -2.734375 11.390625 -2.734375 C 11.890625 -2.734375 12.253906 -2.601562 12.484375 -2.34375 C 12.710938 -2.082031 12.828125 -1.753906 12.828125 -1.359375 C 12.828125 -0.941406 12.679688 -0.59375 12.390625 -0.3125 C 12.109375 -0.0390625 11.707031 0.09375 11.1875 0.09375 C 10.03125 0.09375 9.007812 0 8.125 -0.1875 C 7.25 -0.382812 6.46875 -0.664062 5.78125 -1.03125 C 5.007812 -0.675781 4.132812 -0.398438 3.15625 -0.203125 C 2.175781 -0.00390625 1.097656 0.09375 -0.078125 0.09375 Z M 3.84375 -6.5625 C 4.175781 -6.289062 4.554688 -5.941406 4.984375 -5.515625 C 5.410156 -5.097656 5.804688 -4.671875 6.171875 -4.234375 C 6.910156 -4.796875 7.28125 -5.398438 7.28125 -6.046875 C 7.28125 -6.316406 7.175781 -6.554688 6.96875 -6.765625 C 6.769531 -6.972656 6.410156 -7.078125 5.890625 -7.078125 C 5.617188 -7.078125 5.285156 -7.03125 4.890625 -6.9375 C 4.492188 -6.851562 4.144531 -6.726562 3.84375 -6.5625 Z M 3.84375 -6.5625 "/></g></g></g><g fill="#365b6d" fill-opacity="1"><g transform="translate(308.298836, 359.477182)"><g><path d="M 0 0.09375 L 0.203125 -2.734375 C 0.691406 -2.734375 1.109375 -2.78125 1.453125 -2.875 C 1.804688 -2.976562 2.101562 -3.171875 2.34375 -3.453125 C 2.59375 -3.742188 2.800781 -4.175781 2.96875 -4.75 C 3.144531 -5.320312 3.300781 -6.078125 3.4375 -7.015625 L 6.09375 -6.578125 C 6.039062 -6.265625 5.976562 -5.890625 5.90625 -5.453125 C 5.84375 -5.023438 5.8125 -4.628906 5.8125 -4.265625 C 5.8125 -3.773438 6.007812 -3.394531 6.40625 -3.125 C 6.8125 -2.863281 7.507812 -2.734375 8.5 -2.734375 C 9 -2.734375 9.359375 -2.601562 9.578125 -2.34375 C 9.804688 -2.082031 9.921875 -1.753906 9.921875 -1.359375 C 9.921875 -0.941406 9.78125 -0.59375 9.5 -0.3125 C 9.226562 -0.0390625 8.828125 0.09375 8.296875 0.09375 C 7.347656 0.09375 6.539062 -0.0234375 5.875 -0.265625 C 5.207031 -0.503906 4.71875 -0.9375 4.40625 -1.5625 C 4.039062 -1.070312 3.609375 -0.707031 3.109375 -0.46875 C 2.617188 -0.238281 2.101562 -0.0859375 1.5625 -0.015625 C 1.03125 0.0546875 0.507812 0.09375 0 0.09375 Z M 2.984375 -9.015625 C 2.597656 -9.015625 2.265625 -9.15625 1.984375 -9.4375 C 1.703125 -9.71875 1.5625 -10.046875 1.5625 -10.421875 C 1.5625 -10.816406 1.703125 -11.15625 1.984375 -11.4375 C 2.265625 -11.71875 2.597656 -11.859375 2.984375 -11.859375 C 3.367188 -11.859375 3.695312 -11.71875 3.96875 -11.4375 C 4.238281 -11.15625 4.375 -10.816406 4.375 -10.421875 C 4.375 -10.046875 4.238281 -9.71875 3.96875 -9.4375 C 3.695312 -9.15625 3.367188 -9.015625 2.984375 -9.015625 Z M 6.5 -9 C 6.101562 -9 5.765625 -9.132812 5.484375 -9.40625 C 5.210938 -9.675781 5.078125 -10.007812 5.078125 -10.40625 C 5.078125 -10.789062 5.210938 -11.125 5.484375 -11.40625 C 5.765625 -11.695312 6.101562 -11.84375 6.5 -11.84375 C 6.875 -11.84375 7.195312 -11.695312 7.46875 -11.40625 C 7.738281 -11.125 7.875 -10.789062 7.875 -10.40625 C 7.875 -10.007812 7.738281 -9.675781 7.46875 -9.40625 C 7.195312 -9.132812 6.875 -9 6.5 -9 Z M 6.5 -9 "/></g></g></g><g fill="#365b6d" fill-opacity="1"><g transform="translate(316.677714, 359.477182)"><g><path d="M 0 0.09375 L 0.203125 -2.734375 C 0.828125 -2.734375 1.273438 -2.796875 1.546875 -2.921875 C 1.816406 -3.054688 1.976562 -3.300781 2.03125 -3.65625 C 2.082031 -4.019531 2.09375 -4.546875 2.0625 -5.234375 L 1.703125 -14.859375 L 4.5625 -14.859375 L 4.96875 -5.03125 C 5 -4.25 4.96875 -3.539062 4.875 -2.90625 C 4.789062 -2.28125 4.582031 -1.742188 4.25 -1.296875 C 3.914062 -0.847656 3.40625 -0.503906 2.71875 -0.265625 C 2.039062 -0.0234375 1.132812 0.09375 0 0.09375 Z M 0 0.09375 "/></g></g></g><g fill="#365b6d" fill-opacity="1"><g transform="translate(322.784357, 359.477182)"><g><path d="M 1.625 0 L 1.203125 -14.859375 L 4.046875 -14.859375 L 4.46875 0 Z M 1.625 0 "/></g></g></g><g fill="#365b6d" fill-opacity="1"><g transform="translate(328.404091, 359.477182)"><g/></g></g><g fill="#365b6d" fill-opacity="1"><g transform="translate(332.542819, 359.477182)"><g><path d="M 4.53125 0.0625 C 3.769531 0.0625 3.085938 -0.0664062 2.484375 -0.328125 C 1.878906 -0.597656 1.40625 -1 1.0625 -1.53125 C 0.71875 -2.0625 0.546875 -2.726562 0.546875 -3.53125 C 0.546875 -4.175781 0.722656 -4.890625 1.078125 -5.671875 C 1.441406 -6.460938 2.03125 -7.265625 2.84375 -8.078125 L 2.046875 -8.703125 L 3.953125 -11.046875 C 5.492188 -9.867188 6.703125 -8.726562 7.578125 -7.625 C 8.453125 -6.53125 8.890625 -5.335938 8.890625 -4.046875 C 8.890625 -3.617188 8.820312 -3.164062 8.6875 -2.6875 C 8.550781 -2.207031 8.320312 -1.757812 8 -1.34375 C 7.675781 -0.9375 7.234375 -0.597656 6.671875 -0.328125 C 6.109375 -0.0664062 5.394531 0.0625 4.53125 0.0625 Z M 4.75 -2.734375 C 5.25 -2.734375 5.613281 -2.878906 5.84375 -3.171875 C 6.082031 -3.460938 6.203125 -3.789062 6.203125 -4.15625 C 6.203125 -4.46875 6.109375 -4.820312 5.921875 -5.21875 C 5.734375 -5.613281 5.320312 -6.078125 4.6875 -6.609375 C 4.1875 -6.140625 3.832031 -5.6875 3.625 -5.25 C 3.414062 -4.8125 3.3125 -4.414062 3.3125 -4.0625 C 3.3125 -3.625 3.453125 -3.289062 3.734375 -3.0625 C 4.015625 -2.84375 4.351562 -2.734375 4.75 -2.734375 Z M 2.984375 -13.015625 C 2.597656 -13.015625 2.265625 -13.15625 1.984375 -13.4375 C 1.703125 -13.71875 1.5625 -14.046875 1.5625 -14.421875 C 1.5625 -14.816406 1.703125 -15.15625 1.984375 -15.4375 C 2.265625 -15.71875 2.597656 -15.859375 2.984375 -15.859375 C 3.367188 -15.859375 3.695312 -15.71875 3.96875 -15.4375 C 4.238281 -15.15625 4.375 -14.816406 4.375 -14.421875 C 4.375 -14.046875 4.238281 -13.71875 3.96875 -13.4375 C 3.695312 -13.15625 3.367188 -13.015625 2.984375 -13.015625 Z M 6.5 -13 C 6.101562 -13 5.765625 -13.132812 5.484375 -13.40625 C 5.210938 -13.675781 5.078125 -14.007812 5.078125 -14.40625 C 5.078125 -14.789062 5.210938 -15.125 5.484375 -15.40625 C 5.765625 -15.695312 6.101562 -15.84375 6.5 -15.84375 C 6.875 -15.84375 7.195312 -15.695312 7.46875 -15.40625 C 7.738281 -15.125 7.875 -14.789062 7.875 -14.40625 C 7.875 -14.007812 7.738281 -13.675781 7.46875 -13.40625 C 7.195312 -13.132812 6.875 -13 6.5 -13 Z M 6.5 -13 "/></g></g></g><g fill="#365b6d" fill-opacity="1"><g transform="translate(342.179548, 359.477182)"><g><path d="M 0.328125 4.6875 L -0.703125 2.171875 C 0.253906 1.835938 1.101562 1.441406 1.84375 0.984375 C 2.59375 0.523438 3.175781 0.00390625 3.59375 -0.578125 C 4.019531 -1.171875 4.234375 -1.832031 4.234375 -2.5625 C 4.234375 -3.125 4.101562 -3.742188 3.84375 -4.421875 C 3.59375 -5.097656 3.285156 -5.789062 2.921875 -6.5 L 5.578125 -7.78125 C 5.804688 -7.351562 6.015625 -6.898438 6.203125 -6.421875 C 6.398438 -5.941406 6.554688 -5.507812 6.671875 -5.125 C 6.796875 -4.75 6.878906 -4.492188 6.921875 -4.359375 C 7.109375 -3.710938 7.367188 -3.28125 7.703125 -3.0625 C 8.035156 -2.84375 8.570312 -2.734375 9.3125 -2.734375 C 9.8125 -2.734375 10.175781 -2.601562 10.40625 -2.34375 C 10.632812 -2.082031 10.75 -1.753906 10.75 -1.359375 C 10.75 -0.941406 10.609375 -0.59375 10.328125 -0.3125 C 10.046875 -0.0390625 9.640625 0.09375 9.109375 0.09375 C 8.085938 0.09375 7.304688 -0.179688 6.765625 -0.734375 C 6.523438 0.109375 6.082031 0.882812 5.4375 1.59375 C 4.800781 2.300781 4.035156 2.914062 3.140625 3.4375 C 2.253906 3.96875 1.316406 4.382812 0.328125 4.6875 Z M 0.328125 4.6875 "/></g></g></g><g fill="#365b6d" fill-opacity="1"><g transform="translate(351.390228, 359.477182)"><g><path d="M 0 0.09375 L 0.203125 -2.734375 L 1.203125 -2.734375 C 1.472656 -3.160156 1.753906 -3.566406 2.046875 -3.953125 L 1.6875 -14.859375 L 4.53125 -14.859375 L 4.828125 -6.96875 C 5.597656 -7.613281 6.410156 -8.128906 7.265625 -8.515625 C 8.128906 -8.910156 9.003906 -9.109375 9.890625 -9.109375 C 10.773438 -9.109375 11.535156 -8.925781 12.171875 -8.5625 C 12.804688 -8.195312 13.296875 -7.691406 13.640625 -7.046875 C 13.992188 -6.410156 14.171875 -5.675781 14.171875 -4.84375 C 14.171875 -3.96875 13.921875 -3.175781 13.421875 -2.46875 C 12.929688 -1.769531 12.097656 -1.191406 10.921875 -0.734375 C 10.421875 -0.546875 9.878906 -0.390625 9.296875 -0.265625 C 8.710938 -0.140625 8.023438 -0.0507812 7.234375 0 C 6.453125 0.0625 5.515625 0.09375 4.421875 0.09375 Z M 9.640625 -6.265625 C 9.035156 -6.265625 8.429688 -6.09375 7.828125 -5.75 C 7.222656 -5.414062 6.644531 -4.984375 6.09375 -4.453125 C 5.550781 -3.921875 5.050781 -3.347656 4.59375 -2.734375 L 4.75 -2.734375 C 6.457031 -2.734375 7.785156 -2.816406 8.734375 -2.984375 C 9.691406 -3.160156 10.363281 -3.394531 10.75 -3.6875 C 11.132812 -3.988281 11.328125 -4.335938 11.328125 -4.734375 C 11.328125 -5.117188 11.191406 -5.46875 10.921875 -5.78125 C 10.648438 -6.101562 10.222656 -6.265625 9.640625 -6.265625 Z M 15.125 0.09375 C 14.082031 0.09375 13.113281 -0.0390625 12.21875 -0.3125 C 11.320312 -0.59375 10.640625 -0.9375 10.171875 -1.34375 L 12 -3.3125 C 12.476562 -3.101562 12.972656 -2.953125 13.484375 -2.859375 C 14.003906 -2.773438 14.617188 -2.734375 15.328125 -2.734375 C 15.828125 -2.734375 16.191406 -2.601562 16.421875 -2.34375 C 16.648438 -2.082031 16.765625 -1.753906 16.765625 -1.359375 C 16.765625 -0.941406 16.617188 -0.59375 16.328125 -0.3125 C 16.046875 -0.0390625 15.644531 0.09375 15.125 0.09375 Z M 15.125 0.09375 "/></g></g></g><g fill="#365b6d" fill-opacity="1"><g transform="translate(366.9307, 359.477182)"><g><path d="M 0 0.09375 L 0.203125 -2.71875 C 1.316406 -2.71875 2.21875 -2.722656 2.90625 -2.734375 C 3.59375 -2.753906 4.128906 -2.785156 4.515625 -2.828125 C 4.898438 -2.878906 5.1875 -2.941406 5.375 -3.015625 C 5.5625 -3.085938 5.722656 -3.171875 5.859375 -3.265625 C 5.972656 -3.347656 6.070312 -3.445312 6.15625 -3.5625 C 6.25 -3.6875 6.328125 -3.835938 6.390625 -4.015625 C 5.835938 -3.816406 5.265625 -3.71875 4.671875 -3.71875 C 3.585938 -3.71875 2.734375 -3.941406 2.109375 -4.390625 C 1.484375 -4.847656 1.171875 -5.648438 1.171875 -6.796875 C 1.171875 -7.390625 1.269531 -7.976562 1.46875 -8.5625 C 1.675781 -9.15625 1.96875 -9.691406 2.34375 -10.171875 C 2.726562 -10.660156 3.175781 -11.046875 3.6875 -11.328125 C 4.207031 -11.617188 4.78125 -11.765625 5.40625 -11.765625 C 6.320312 -11.765625 7.078125 -11.5 7.671875 -10.96875 C 8.273438 -10.4375 8.722656 -9.71875 9.015625 -8.8125 C 9.304688 -7.914062 9.453125 -6.921875 9.453125 -5.828125 C 9.453125 -4.867188 9.3125 -4.03125 9.03125 -3.3125 C 8.75 -2.601562 8.410156 -2.046875 8.015625 -1.640625 C 7.691406 -1.304688 7.316406 -1.023438 6.890625 -0.796875 C 6.472656 -0.566406 5.960938 -0.382812 5.359375 -0.25 C 4.765625 -0.125 4.03125 -0.0351562 3.15625 0.015625 C 2.28125 0.0664062 1.226562 0.09375 0 0.09375 Z M 3.984375 -7.34375 C 3.984375 -6.757812 4.4375 -6.46875 5.34375 -6.46875 C 5.769531 -6.46875 6.203125 -6.535156 6.640625 -6.671875 C 6.566406 -7.421875 6.410156 -7.988281 6.171875 -8.375 C 5.929688 -8.769531 5.617188 -8.96875 5.234375 -8.96875 C 4.910156 -8.96875 4.617188 -8.8125 4.359375 -8.5 C 4.109375 -8.1875 3.984375 -7.800781 3.984375 -7.34375 Z M 3.984375 -14.015625 C 3.597656 -14.015625 3.265625 -14.15625 2.984375 -14.4375 C 2.703125 -14.71875 2.5625 -15.046875 2.5625 -15.421875 C 2.5625 -15.816406 2.703125 -16.15625 2.984375 -16.4375 C 3.265625 -16.71875 3.597656 -16.859375 3.984375 -16.859375 C 4.367188 -16.859375 4.695312 -16.71875 4.96875 -16.4375 C 5.238281 -16.15625 5.375 -15.816406 5.375 -15.421875 C 5.375 -15.046875 5.238281 -14.71875 4.96875 -14.4375 C 4.695312 -14.15625 4.367188 -14.015625 3.984375 -14.015625 Z M 7.5 -14 C 7.101562 -14 6.765625 -14.132812 6.484375 -14.40625 C 6.210938 -14.675781 6.078125 -15.007812 6.078125 -15.40625 C 6.078125 -15.789062 6.210938 -16.125 6.484375 -16.40625 C 6.765625 -16.695312 7.101562 -16.84375 7.5 -16.84375 C 7.875 -16.84375 8.195312 -16.695312 8.46875 -16.40625 C 8.738281 -16.125 8.875 -15.789062 8.875 -15.40625 C 8.875 -15.007812 8.738281 -14.675781 8.46875 -14.40625 C 8.195312 -14.132812 7.875 -14 7.5 -14 Z M 7.5 -14 "/></g></g></g><g fill="#365b6d" fill-opacity="1"><g transform="translate(377.25721, 359.477182)"><g/></g></g><g fill="#365b6d" fill-opacity="1"><g transform="translate(381.39595, 359.477182)"><g><path d="M 6.609375 8 C 5.421875 8 4.335938 7.828125 3.359375 7.484375 C 2.378906 7.148438 1.597656 6.617188 1.015625 5.890625 C 0.441406 5.171875 0.15625 4.242188 0.15625 3.109375 C 0.15625 2.171875 0.363281 1.351562 0.78125 0.65625 C 1.195312 -0.0390625 1.71875 -0.648438 2.34375 -1.171875 C 2.96875 -1.691406 3.613281 -2.164062 4.28125 -2.59375 C 3.96875 -2.988281 3.601562 -3.394531 3.1875 -3.8125 C 2.78125 -4.226562 2.441406 -4.546875 2.171875 -4.765625 C 2.128906 -4.804688 2.0625 -4.945312 1.96875 -5.1875 C 1.875 -5.425781 1.789062 -5.675781 1.71875 -5.9375 C 1.644531 -6.195312 1.609375 -6.390625 1.609375 -6.515625 C 1.609375 -6.785156 1.734375 -7.09375 1.984375 -7.4375 C 2.242188 -7.78125 2.609375 -8.109375 3.078125 -8.421875 C 3.546875 -8.742188 4.085938 -9.007812 4.703125 -9.21875 C 5.328125 -9.4375 6.003906 -9.546875 6.734375 -9.546875 C 8.066406 -9.546875 9.023438 -9.257812 9.609375 -8.6875 C 10.203125 -8.113281 10.5 -7.394531 10.5 -6.53125 C 10.5 -5.832031 10.351562 -5.195312 10.0625 -4.625 C 9.78125 -4.0625 9.421875 -3.535156 8.984375 -3.046875 C 9.410156 -2.953125 9.851562 -2.875 10.3125 -2.8125 C 10.78125 -2.757812 11.265625 -2.734375 11.765625 -2.734375 C 12.285156 -2.734375 12.648438 -2.601562 12.859375 -2.34375 C 13.078125 -2.082031 13.1875 -1.753906 13.1875 -1.359375 C 13.1875 -0.941406 13.046875 -0.59375 12.765625 -0.3125 C 12.484375 -0.0390625 12.082031 0.09375 11.5625 0.09375 C 10.40625 0.09375 9.429688 0.0078125 8.640625 -0.15625 C 7.847656 -0.320312 7.117188 -0.582031 6.453125 -0.9375 C 5.867188 -0.507812 5.316406 -0.0976562 4.796875 0.296875 C 4.273438 0.691406 3.851562 1.097656 3.53125 1.515625 C 3.207031 1.941406 3.046875 2.394531 3.046875 2.875 C 3.046875 3.445312 3.234375 3.898438 3.609375 4.234375 C 3.992188 4.566406 4.460938 4.800781 5.015625 4.9375 C 5.566406 5.082031 6.113281 5.15625 6.65625 5.15625 C 7.28125 5.15625 7.945312 5.078125 8.65625 4.921875 C 9.363281 4.773438 10.117188 4.535156 10.921875 4.203125 L 11.765625 6.640625 C 10.992188 7.054688 10.148438 7.382812 9.234375 7.625 C 8.328125 7.875 7.453125 8 6.609375 8 Z M 4.234375 -6.5625 C 4.671875 -6.195312 5.101562 -5.800781 5.53125 -5.375 C 5.957031 -4.945312 6.3125 -4.554688 6.59375 -4.203125 C 6.914062 -4.484375 7.175781 -4.769531 7.375 -5.0625 C 7.582031 -5.363281 7.6875 -5.691406 7.6875 -6.046875 C 7.6875 -6.316406 7.582031 -6.554688 7.375 -6.765625 C 7.175781 -6.972656 6.820312 -7.078125 6.3125 -7.078125 C 5.976562 -7.078125 5.625 -7.023438 5.25 -6.921875 C 4.875 -6.828125 4.535156 -6.707031 4.234375 -6.5625 Z M 4.234375 -6.5625 "/></g></g></g><g fill="#365b6d" fill-opacity="1"><g transform="translate(393.041163, 359.477182)"><g><path d="M 0 0.09375 L 0.203125 -2.71875 C 1.316406 -2.71875 2.21875 -2.722656 2.90625 -2.734375 C 3.59375 -2.753906 4.128906 -2.785156 4.515625 -2.828125 C 4.898438 -2.878906 5.1875 -2.941406 5.375 -3.015625 C 5.5625 -3.085938 5.722656 -3.171875 5.859375 -3.265625 C 5.972656 -3.347656 6.070312 -3.445312 6.15625 -3.5625 C 6.25 -3.6875 6.328125 -3.835938 6.390625 -4.015625 C 5.835938 -3.816406 5.265625 -3.71875 4.671875 -3.71875 C 3.585938 -3.71875 2.734375 -3.941406 2.109375 -4.390625 C 1.484375 -4.847656 1.171875 -5.648438 1.171875 -6.796875 C 1.171875 -7.390625 1.269531 -7.976562 1.46875 -8.5625 C 1.675781 -9.15625 1.96875 -9.691406 2.34375 -10.171875 C 2.726562 -10.660156 3.175781 -11.046875 3.6875 -11.328125 C 4.207031 -11.617188 4.78125 -11.765625 5.40625 -11.765625 C 6.320312 -11.765625 7.078125 -11.5 7.671875 -10.96875 C 8.273438 -10.4375 8.722656 -9.71875 9.015625 -8.8125 C 9.304688 -7.914062 9.453125 -6.921875 9.453125 -5.828125 C 9.453125 -4.867188 9.3125 -4.03125 9.03125 -3.3125 C 8.75 -2.601562 8.410156 -2.046875 8.015625 -1.640625 C 7.691406 -1.304688 7.316406 -1.023438 6.890625 -0.796875 C 6.472656 -0.566406 5.960938 -0.382812 5.359375 -0.25 C 4.765625 -0.125 4.03125 -0.0351562 3.15625 0.015625 C 2.28125 0.0664062 1.226562 0.09375 0 0.09375 Z M 3.984375 -7.34375 C 3.984375 -6.757812 4.4375 -6.46875 5.34375 -6.46875 C 5.769531 -6.46875 6.203125 -6.535156 6.640625 -6.671875 C 6.566406 -7.421875 6.410156 -7.988281 6.171875 -8.375 C 5.929688 -8.769531 5.617188 -8.96875 5.234375 -8.96875 C 4.910156 -8.96875 4.617188 -8.8125 4.359375 -8.5 C 4.109375 -8.1875 3.984375 -7.800781 3.984375 -7.34375 Z M 3.984375 -14.015625 C 3.597656 -14.015625 3.265625 -14.15625 2.984375 -14.4375 C 2.703125 -14.71875 2.5625 -15.046875 2.5625 -15.421875 C 2.5625 -15.816406 2.703125 -16.15625 2.984375 -16.4375 C 3.265625 -16.71875 3.597656 -16.859375 3.984375 -16.859375 C 4.367188 -16.859375 4.695312 -16.71875 4.96875 -16.4375 C 5.238281 -16.15625 5.375 -15.816406 5.375 -15.421875 C 5.375 -15.046875 5.238281 -14.71875 4.96875 -14.4375 C 4.695312 -14.15625 4.367188 -14.015625 3.984375 -14.015625 Z M 7.5 -14 C 7.101562 -14 6.765625 -14.132812 6.484375 -14.40625 C 6.210938 -14.675781 6.078125 -15.007812 6.078125 -15.40625 C 6.078125 -15.789062 6.210938 -16.125 6.484375 -16.40625 C 6.765625 -16.695312 7.101562 -16.84375 7.5 -16.84375 C 7.875 -16.84375 8.195312 -16.695312 8.46875 -16.40625 C 8.738281 -16.125 8.875 -15.789062 8.875 -15.40625 C 8.875 -15.007812 8.738281 -14.675781 8.46875 -14.40625 C 8.195312 -14.132812 7.875 -14 7.5 -14 Z M 7.5 -14 "/></g></g></g><g fill="#365b6d" fill-opacity="1"><g transform="translate(403.367676, 359.477182)"><g><path d="M 1.15625 4.671875 L 0.5625 1.828125 C 1.78125 1.679688 2.804688 1.488281 3.640625 1.25 C 4.472656 1.007812 5.117188 0.625 5.578125 0.09375 L 5.03125 0.09375 C 3.757812 0.09375 2.757812 -0.132812 2.03125 -0.59375 C 1.3125 -1.0625 0.953125 -1.863281 0.953125 -3 C 0.953125 -3.613281 1.054688 -4.222656 1.265625 -4.828125 C 1.472656 -5.441406 1.765625 -6 2.140625 -6.5 C 2.523438 -7.007812 2.96875 -7.414062 3.46875 -7.71875 C 3.976562 -8.019531 4.535156 -8.171875 5.140625 -8.171875 C 5.929688 -8.171875 6.632812 -7.921875 7.25 -7.421875 C 7.863281 -6.921875 8.34375 -6.257812 8.6875 -5.4375 C 9.039062 -4.613281 9.21875 -3.710938 9.21875 -2.734375 L 10.8125 -2.734375 C 11.3125 -2.734375 11.675781 -2.601562 11.90625 -2.34375 C 12.144531 -2.082031 12.265625 -1.753906 12.265625 -1.359375 C 12.265625 -0.941406 12.117188 -0.59375 11.828125 -0.3125 C 11.546875 -0.0390625 11.140625 0.09375 10.609375 0.09375 L 8.75 0.09375 C 8.21875 1.507812 7.300781 2.597656 6 3.359375 C 4.695312 4.117188 3.082031 4.554688 1.15625 4.671875 Z M 3.75 -3.484375 C 3.75 -3.335938 3.800781 -3.1875 3.90625 -3.03125 C 4.007812 -2.875 4.242188 -2.75 4.609375 -2.65625 C 4.972656 -2.570312 5.554688 -2.566406 6.359375 -2.640625 C 6.335938 -3.421875 6.207031 -4.035156 5.96875 -4.484375 C 5.726562 -4.941406 5.410156 -5.171875 5.015625 -5.171875 C 4.734375 -5.171875 4.492188 -5.070312 4.296875 -4.875 C 4.109375 -4.6875 3.96875 -4.457031 3.875 -4.1875 C 3.789062 -3.925781 3.75 -3.691406 3.75 -3.484375 Z M 3.75 -3.484375 "/></g></g></g><g fill="#365b6d" fill-opacity="1"><g transform="translate(414.079654, 359.477182)"><g><path d="M 0 0.09375 L 0.203125 -2.734375 C 0.503906 -2.734375 0.769531 -2.8125 1 -2.96875 C 1.226562 -3.125 1.460938 -3.382812 1.703125 -3.75 C 1.941406 -4.113281 2.226562 -4.625 2.5625 -5.28125 C 3.164062 -6.5 3.804688 -7.332031 4.484375 -7.78125 C 5.171875 -8.238281 5.875 -8.46875 6.59375 -8.46875 C 7.394531 -8.46875 8.113281 -8.242188 8.75 -7.796875 C 9.382812 -7.347656 9.882812 -6.769531 10.25 -6.0625 C 10.613281 -5.351562 10.796875 -4.597656 10.796875 -3.796875 C 10.796875 -3.078125 10.644531 -2.429688 10.34375 -1.859375 C 10.039062 -1.285156 9.617188 -0.832031 9.078125 -0.5 C 8.546875 -0.164062 7.9375 0 7.25 0 C 6.726562 0 6.132812 -0.0703125 5.46875 -0.21875 C 4.8125 -0.375 4.117188 -0.6875 3.390625 -1.15625 C 2.972656 -0.6875 2.503906 -0.359375 1.984375 -0.171875 C 1.472656 0.00390625 0.8125 0.09375 0 0.09375 Z M 6.515625 -5.625 C 6.117188 -5.625 5.804688 -5.425781 5.578125 -5.03125 C 5.347656 -4.632812 5.078125 -4.113281 4.765625 -3.46875 C 5.191406 -3.25 5.582031 -3.085938 5.9375 -2.984375 C 6.289062 -2.890625 6.597656 -2.84375 6.859375 -2.84375 C 7.265625 -2.84375 7.5625 -2.898438 7.75 -3.015625 C 7.9375 -3.140625 8.03125 -3.359375 8.03125 -3.671875 C 8.03125 -3.953125 7.960938 -4.242188 7.828125 -4.546875 C 7.691406 -4.847656 7.507812 -5.101562 7.28125 -5.3125 C 7.050781 -5.519531 6.796875 -5.625 6.515625 -5.625 Z M 6.515625 -5.625 "/></g></g></g><g fill="#365b6d" fill-opacity="1"><g transform="translate(543.04952, 340.416316)"><g><path d="M 7.21875 0 C 5.894531 0 5.234375 -0.660156 5.234375 -1.984375 L 5.234375 -11.765625 C 5.234375 -12.617188 5.582031 -13.429688 6.28125 -14.203125 C 9.46875 -17.390625 12.847656 -20.941406 16.421875 -24.859375 C 19.992188 -28.785156 22.398438 -31.40625 23.640625 -32.71875 C 27.210938 -36.757812 29.890625 -39.710938 31.671875 -41.578125 C 38.734375 -49.410156 42.265625 -55.234375 42.265625 -59.046875 C 42.265625 -61.765625 41.296875 -63.992188 39.359375 -65.734375 C 37.421875 -67.484375 34.898438 -68.359375 31.796875 -68.359375 C 28.691406 -68.359375 26.164062 -67.484375 24.21875 -65.734375 C 22.28125 -63.992188 21.3125 -61.6875 21.3125 -58.8125 L 21.3125 -56.484375 C 21.3125 -55.160156 20.648438 -54.5 19.328125 -54.5 L 6.75 -54.5 C 5.4375 -54.5 4.78125 -55.160156 4.78125 -56.484375 L 4.78125 -61.375 C 5.007812 -65.5625 6.328125 -69.265625 8.734375 -72.484375 C 11.140625 -75.710938 14.34375 -78.179688 18.34375 -79.890625 C 22.34375 -81.597656 26.828125 -82.453125 31.796875 -82.453125 C 37.304688 -82.453125 42.097656 -81.421875 46.171875 -79.359375 C 50.242188 -77.304688 53.382812 -74.53125 55.59375 -71.03125 C 57.8125 -67.539062 58.921875 -63.660156 58.921875 -59.390625 C 58.921875 -56.128906 58.101562 -52.789062 56.46875 -49.375 C 54.84375 -45.957031 52.398438 -42.269531 49.140625 -38.3125 C 46.035156 -34.507812 40.679688 -28.648438 33.078125 -20.734375 C 32.992188 -20.648438 31.164062 -18.707031 27.59375 -14.90625 C 27.363281 -14.75 27.285156 -14.570312 27.359375 -14.375 C 27.441406 -14.1875 27.640625 -14.09375 27.953125 -14.09375 L 58.453125 -14.09375 C 59.773438 -14.09375 60.4375 -13.429688 60.4375 -12.109375 L 60.4375 -1.984375 C 60.4375 -0.660156 59.773438 0 58.453125 0 Z M 7.21875 0 "/></g></g></g><g fill="#f7f7f7" fill-opacity="1"><g transform="translate(596.819537, 340.416316)"><g><path d="M 33.078125 1.28125 C 24.535156 1.28125 17.78125 -1.101562 12.8125 -5.875 C 7.84375 -10.65625 5.359375 -17.160156 5.359375 -25.390625 L 5.359375 -56.125 C 5.359375 -64.195312 7.84375 -70.601562 12.8125 -75.34375 C 17.78125 -80.082031 24.535156 -82.453125 33.078125 -82.453125 C 41.609375 -82.453125 48.378906 -80.082031 53.390625 -75.34375 C 58.398438 -70.601562 60.90625 -64.195312 60.90625 -56.125 L 60.90625 -25.390625 C 60.90625 -17.160156 58.398438 -10.65625 53.390625 -5.875 C 48.378906 -1.101562 41.609375 1.28125 33.078125 1.28125 Z M 33.078125 -12.8125 C 36.566406 -12.8125 39.335938 -13.878906 41.390625 -16.015625 C 43.453125 -18.148438 44.484375 -21.003906 44.484375 -24.578125 L 44.484375 -56.59375 C 44.484375 -60.164062 43.453125 -63.019531 41.390625 -65.15625 C 39.335938 -67.289062 36.566406 -68.359375 33.078125 -68.359375 C 29.660156 -68.359375 26.921875 -67.289062 24.859375 -65.15625 C 22.804688 -63.019531 21.78125 -60.164062 21.78125 -56.59375 L 21.78125 -24.578125 C 21.78125 -21.003906 22.804688 -18.148438 24.859375 -16.015625 C 26.921875 -13.878906 29.660156 -12.8125 33.078125 -12.8125 Z M 33.078125 -12.8125 "/></g></g></g><g fill="#f7f7f7" fill-opacity="1"><g transform="translate(543.047207, 431.614947)"><g><path d="M 7.21875 0 C 5.894531 0 5.234375 -0.660156 5.234375 -1.984375 L 5.234375 -11.765625 C 5.234375 -12.617188 5.582031 -13.429688 6.28125 -14.203125 C 9.46875 -17.390625 12.847656 -20.941406 16.421875 -24.859375 C 19.992188 -28.785156 22.398438 -31.40625 23.640625 -32.71875 C 27.210938 -36.757812 29.890625 -39.710938 31.671875 -41.578125 C 38.734375 -49.410156 42.265625 -55.234375 42.265625 -59.046875 C 42.265625 -61.765625 41.296875 -63.992188 39.359375 -65.734375 C 37.421875 -67.484375 34.898438 -68.359375 31.796875 -68.359375 C 28.691406 -68.359375 26.164062 -67.484375 24.21875 -65.734375 C 22.28125 -63.992188 21.3125 -61.6875 21.3125 -58.8125 L 21.3125 -56.484375 C 21.3125 -55.160156 20.648438 -54.5 19.328125 -54.5 L 6.75 -54.5 C 5.4375 -54.5 4.78125 -55.160156 4.78125 -56.484375 L 4.78125 -61.375 C 5.007812 -65.5625 6.328125 -69.265625 8.734375 -72.484375 C 11.140625 -75.710938 14.34375 -78.179688 18.34375 -79.890625 C 22.34375 -81.597656 26.828125 -82.453125 31.796875 -82.453125 C 37.304688 -82.453125 42.097656 -81.421875 46.171875 -79.359375 C 50.242188 -77.304688 53.382812 -74.53125 55.59375 -71.03125 C 57.8125 -67.539062 58.921875 -63.660156 58.921875 -59.390625 C 58.921875 -56.128906 58.101562 -52.789062 56.46875 -49.375 C 54.84375 -45.957031 52.398438 -42.269531 49.140625 -38.3125 C 46.035156 -34.507812 40.679688 -28.648438 33.078125 -20.734375 C 32.992188 -20.648438 31.164062 -18.707031 27.59375 -14.90625 C 27.363281 -14.75 27.285156 -14.570312 27.359375 -14.375 C 27.441406 -14.1875 27.640625 -14.09375 27.953125 -14.09375 L 58.453125 -14.09375 C 59.773438 -14.09375 60.4375 -13.429688 60.4375 -12.109375 L 60.4375 -1.984375 C 60.4375 -0.660156 59.773438 0 58.453125 0 Z M 7.21875 0 "/></g></g></g><g fill="#365b6d" fill-opacity="1"><g transform="translate(597.401819, 431.619096)"><g><path d="M 7.21875 0 C 5.894531 0 5.234375 -0.660156 5.234375 -1.984375 L 5.234375 -11.765625 C 5.234375 -12.617188 5.582031 -13.429688 6.28125 -14.203125 C 9.46875 -17.390625 12.847656 -20.941406 16.421875 -24.859375 C 19.992188 -28.785156 22.398438 -31.40625 23.640625 -32.71875 C 27.210938 -36.757812 29.890625 -39.710938 31.671875 -41.578125 C 38.734375 -49.410156 42.265625 -55.234375 42.265625 -59.046875 C 42.265625 -61.765625 41.296875 -63.992188 39.359375 -65.734375 C 37.421875 -67.484375 34.898438 -68.359375 31.796875 -68.359375 C 28.691406 -68.359375 26.164062 -67.484375 24.21875 -65.734375 C 22.28125 -63.992188 21.3125 -61.6875 21.3125 -58.8125 L 21.3125 -56.484375 C 21.3125 -55.160156 20.648438 -54.5 19.328125 -54.5 L 6.75 -54.5 C 5.4375 -54.5 4.78125 -55.160156 4.78125 -56.484375 L 4.78125 -61.375 C 5.007812 -65.5625 6.328125 -69.265625 8.734375 -72.484375 C 11.140625 -75.710938 14.34375 -78.179688 18.34375 -79.890625 C 22.34375 -81.597656 26.828125 -82.453125 31.796875 -82.453125 C 37.304688 -82.453125 42.097656 -81.421875 46.171875 -79.359375 C 50.242188 -77.304688 53.382812 -74.53125 55.59375 -71.03125 C 57.8125 -67.539062 58.921875 -63.660156 58.921875 -59.390625 C 58.921875 -56.128906 58.101562 -52.789062 56.46875 -49.375 C 54.84375 -45.957031 52.398438 -42.269531 49.140625 -38.3125 C 46.035156 -34.507812 40.679688 -28.648438 33.078125 -20.734375 C 32.992188 -20.648438 31.164062 -18.707031 27.59375 -14.90625 C 27.363281 -14.75 27.285156 -14.570312 27.359375 -14.375 C 27.441406 -14.1875 27.640625 -14.09375 27.953125 -14.09375 L 58.453125 -14.09375 C 59.773438 -14.09375 60.4375 -13.429688 60.4375 -12.109375 L 60.4375 -1.984375 C 60.4375 -0.660156 59.773438 0 58.453125 0 Z M 7.21875 0 "/></g></g></g><g fill="#718c75" fill-opacity="0.302"><g transform="translate(308.931788, 303.796329)"><g><path d="M 9.34375 0 C 7.632812 0 6.78125 -0.851562 6.78125 -2.5625 L 6.78125 -15.21875 C 6.78125 -16.320312 7.234375 -17.375 8.140625 -18.375 C 12.253906 -22.5 16.617188 -27.097656 21.234375 -32.171875 C 25.859375 -37.242188 28.976562 -40.632812 30.59375 -42.34375 C 35.207031 -47.5625 38.671875 -51.378906 40.984375 -53.796875 C 50.117188 -63.929688 54.6875 -71.460938 54.6875 -76.390625 C 54.6875 -79.910156 53.429688 -82.796875 50.921875 -85.046875 C 48.410156 -87.304688 45.148438 -88.4375 41.140625 -88.4375 C 37.117188 -88.4375 33.851562 -87.304688 31.34375 -85.046875 C 28.832031 -82.796875 27.578125 -79.8125 27.578125 -76.09375 L 27.578125 -73.078125 C 27.578125 -71.367188 26.722656 -70.515625 25.015625 -70.515625 L 8.734375 -70.515625 C 7.023438 -70.515625 6.171875 -71.367188 6.171875 -73.078125 L 6.171875 -79.40625 C 6.472656 -84.832031 8.179688 -89.628906 11.296875 -93.796875 C 14.410156 -97.960938 18.550781 -101.148438 23.71875 -103.359375 C 28.894531 -105.566406 34.703125 -106.671875 41.140625 -106.671875 C 48.265625 -106.671875 54.460938 -105.335938 59.734375 -102.671875 C 65.015625 -100.015625 69.082031 -96.425781 71.9375 -91.90625 C 74.800781 -87.382812 76.234375 -82.363281 76.234375 -76.84375 C 76.234375 -72.625 75.175781 -68.300781 73.0625 -63.875 C 70.957031 -59.457031 67.796875 -54.691406 63.578125 -49.578125 C 59.566406 -44.648438 52.640625 -37.0625 42.796875 -26.8125 C 42.691406 -26.71875 40.328125 -24.207031 35.703125 -19.28125 C 35.398438 -19.082031 35.300781 -18.859375 35.40625 -18.609375 C 35.507812 -18.359375 35.757812 -18.234375 36.15625 -18.234375 L 75.640625 -18.234375 C 77.347656 -18.234375 78.203125 -17.378906 78.203125 -15.671875 L 78.203125 -2.5625 C 78.203125 -0.851562 77.347656 0 75.640625 0 Z M 9.34375 0 "/></g></g></g><g fill="#718c75" fill-opacity="0.502"><g transform="translate(306.135047, 300.999605)"><g><path d="M 9.34375 0 C 7.632812 0 6.78125 -0.851562 6.78125 -2.5625 L 6.78125 -15.21875 C 6.78125 -16.320312 7.234375 -17.375 8.140625 -18.375 C 12.253906 -22.5 16.617188 -27.097656 21.234375 -32.171875 C 25.859375 -37.242188 28.976562 -40.632812 30.59375 -42.34375 C 35.207031 -47.5625 38.671875 -51.378906 40.984375 -53.796875 C 50.117188 -63.929688 54.6875 -71.460938 54.6875 -76.390625 C 54.6875 -79.910156 53.429688 -82.796875 50.921875 -85.046875 C 48.410156 -87.304688 45.148438 -88.4375 41.140625 -88.4375 C 37.117188 -88.4375 33.851562 -87.304688 31.34375 -85.046875 C 28.832031 -82.796875 27.578125 -79.8125 27.578125 -76.09375 L 27.578125 -73.078125 C 27.578125 -71.367188 26.722656 -70.515625 25.015625 -70.515625 L 8.734375 -70.515625 C 7.023438 -70.515625 6.171875 -71.367188 6.171875 -73.078125 L 6.171875 -79.40625 C 6.472656 -84.832031 8.179688 -89.628906 11.296875 -93.796875 C 14.410156 -97.960938 18.550781 -101.148438 23.71875 -103.359375 C 28.894531 -105.566406 34.703125 -106.671875 41.140625 -106.671875 C 48.265625 -106.671875 54.460938 -105.335938 59.734375 -102.671875 C 65.015625 -100.015625 69.082031 -96.425781 71.9375 -91.90625 C 74.800781 -87.382812 76.234375 -82.363281 76.234375 -76.84375 C 76.234375 -72.625 75.175781 -68.300781 73.0625 -63.875 C 70.957031 -59.457031 67.796875 -54.691406 63.578125 -49.578125 C 59.566406 -44.648438 52.640625 -37.0625 42.796875 -26.8125 C 42.691406 -26.71875 40.328125 -24.207031 35.703125 -19.28125 C 35.398438 -19.082031 35.300781 -18.859375 35.40625 -18.609375 C 35.507812 -18.359375 35.757812 -18.234375 36.15625 -18.234375 L 75.640625 -18.234375 C 77.347656 -18.234375 78.203125 -17.378906 78.203125 -15.671875 L 78.203125 -2.5625 C 78.203125 -0.851562 77.347656 0 75.640625 0 Z M 9.34375 0 "/></g></g></g><g fill="#365b6d" fill-opacity="1"><g transform="translate(303.338306, 298.202864)"><g><path d="M 9.34375 0 C 7.632812 0 6.78125 -0.851562 6.78125 -2.5625 L 6.78125 -15.21875 C 6.78125 -16.320312 7.234375 -17.375 8.140625 -18.375 C 12.253906 -22.5 16.617188 -27.097656 21.234375 -32.171875 C 25.859375 -37.242188 28.976562 -40.632812 30.59375 -42.34375 C 35.207031 -47.5625 38.671875 -51.378906 40.984375 -53.796875 C 50.117188 -63.929688 54.6875 -71.460938 54.6875 -76.390625 C 54.6875 -79.910156 53.429688 -82.796875 50.921875 -85.046875 C 48.410156 -87.304688 45.148438 -88.4375 41.140625 -88.4375 C 37.117188 -88.4375 33.851562 -87.304688 31.34375 -85.046875 C 28.832031 -82.796875 27.578125 -79.8125 27.578125 -76.09375 L 27.578125 -73.078125 C 27.578125 -71.367188 26.722656 -70.515625 25.015625 -70.515625 L 8.734375 -70.515625 C 7.023438 -70.515625 6.171875 -71.367188 6.171875 -73.078125 L 6.171875 -79.40625 C 6.472656 -84.832031 8.179688 -89.628906 11.296875 -93.796875 C 14.410156 -97.960938 18.550781 -101.148438 23.71875 -103.359375 C 28.894531 -105.566406 34.703125 -106.671875 41.140625 -106.671875 C 48.265625 -106.671875 54.460938 -105.335938 59.734375 -102.671875 C 65.015625 -100.015625 69.082031 -96.425781 71.9375 -91.90625 C 74.800781 -87.382812 76.234375 -82.363281 76.234375 -76.84375 C 76.234375 -72.625 75.175781 -68.300781 73.0625 -63.875 C 70.957031 -59.457031 67.796875 -54.691406 63.578125 -49.578125 C 59.566406 -44.648438 52.640625 -37.0625 42.796875 -26.8125 C 42.691406 -26.71875 40.328125 -24.207031 35.703125 -19.28125 C 35.398438 -19.082031 35.300781 -18.859375 35.40625 -18.609375 C 35.507812 -18.359375 35.757812 -18.234375 36.15625 -18.234375 L 75.640625 -18.234375 C 77.347656 -18.234375 78.203125 -17.378906 78.203125 -15.671875 L 78.203125 -2.5625 C 78.203125 -0.851562 77.347656 0 75.640625 0 Z M 9.34375 0 "/></g></g></g></svg>